<?xml version="1.0" encoding="utf-8"?>
<!-- Generator: Adobe Illustrator 15.0.0, SVG Export Plug-In . SVG Version: 6.00 Build 0)  -->
<!DOCTYPE svg PUBLIC "-//W3C//DTD SVG 1.1//EN" "http://www.w3.org/Graphics/SVG/1.1/DTD/svg11.dtd">
<svg version="1.1" id="Layer_1" xmlns="http://www.w3.org/2000/svg" xmlns:xlink="http://www.w3.org/1999/xlink" x="0px" y="0px"
	 width="3000px" height="2000px" viewBox="0 0 3000 2000" enable-background="new 0 0 3000 2000" xml:space="preserve">
<radialGradient id="SVGID_1_" cx="1500" cy="881" r="2013.1779" gradientUnits="userSpaceOnUse">
	<stop  offset="0" style="stop-color:#FFFFFF"/>
	<stop  offset="0.3816" style="stop-color:#FDFEFF"/>
	<stop  offset="0.5856" style="stop-color:#F5FBFF"/>
	<stop  offset="0.7476" style="stop-color:#E7F5FE"/>
	<stop  offset="0.8867" style="stop-color:#D4EDFE"/>
	<stop  offset="1" style="stop-color:#BEE3FD"/>
</radialGradient>
<rect fill="url(#SVGID_1_)" width="3000" height="2000"/>
<radialGradient id="SVGID_2_" cx="423.9199" cy="1690.4883" r="1402.3619" gradientUnits="userSpaceOnUse">
	<stop  offset="0" style="stop-color:#B1F736"/>
	<stop  offset="0.3768" style="stop-color:#93E21E"/>
	<stop  offset="0.7626" style="stop-color:#7BD00A"/>
	<stop  offset="1" style="stop-color:#72CA03"/>
</radialGradient>
<path fill="url(#SVGID_2_)" d="M2289.195,2000C1545.344,1358.968,0,1405.279,0,1405.279V2000H2289.195z"/>
<path fill="#FFFFFF" d="M1569.339,2000C1317.389,1490.941,0,1477.265,0,1477.265V2000H1569.339z"/>
<radialGradient id="SVGID_3_" cx="857.0005" cy="1889" r="912.0119" gradientUnits="userSpaceOnUse">
	<stop  offset="0" style="stop-color:#45BAF3"/>
	<stop  offset="0.0603" style="stop-color:#40B5EE"/>
	<stop  offset="0.6915" style="stop-color:#1280C1"/>
	<stop  offset="1" style="stop-color:#006CAF"/>
</radialGradient>
<path fill="url(#SVGID_3_)" d="M0,1579.244c0,0,717.509,13.678,867.479,420.756H0V1579.244z"/>
<radialGradient id="SVGID_4_" cx="555.5488" cy="1659.6914" r="1830.4961" gradientUnits="userSpaceOnUse">
	<stop  offset="0" style="stop-color:#45BAF3"/>
	<stop  offset="0.0603" style="stop-color:#40B5EE"/>
	<stop  offset="0.6915" style="stop-color:#1280C1"/>
	<stop  offset="1" style="stop-color:#006CAF"/>
</radialGradient>
<path fill="url(#SVGID_4_)" d="M0,1345.291c0,0,2661,393.342,3000,95.98V2000h-747c0,0-356-522.735-2253-594.721V1345.291z"/>
<path fill="#FFFFFF" d="M0,1293c0,0,2323,404,3000-332v516.265c0,0-463,261.368-3000-131.974V1293z"/>
<radialGradient id="SVGID_5_" cx="3009" cy="762.6685" r="3580.032" gradientUnits="userSpaceOnUse">
	<stop  offset="0" style="stop-color:#B1F736"/>
	<stop  offset="0.3768" style="stop-color:#93E21E"/>
	<stop  offset="0.7626" style="stop-color:#7BD00A"/>
	<stop  offset="1" style="stop-color:#72CA03"/>
</radialGradient>
<path fill="url(#SVGID_5_)" d="M0,1185c0,0,1500,487.646,3000-628v443c0,0-399,672.646-3000,293V1185z"/>
<radialGradient id="SVGID_6_" cx="81.6421" cy="679.4263" r="2915.5808" gradientUnits="userSpaceOnUse">
	<stop  offset="0" style="stop-color:#45BAF3"/>
	<stop  offset="0.0603" style="stop-color:#40B5EE"/>
	<stop  offset="0.6915" style="stop-color:#1280C1"/>
	<stop  offset="1" style="stop-color:#006CAF"/>
</radialGradient>
<path fill="url(#SVGID_6_)" d="M0,1185c0,0,1413.256,557.313,3000-628V433.476C3000,433.476,1628.015,1612.59,0,1185z"/>
<g>
	<path fill="#FFFFFF" d="M2228.895,2019.456c-2.736-2.24-11.87-10.03-27.045-22.182c-15.182-12.14-36.449-28.604-63.648-47.859
		c-27.197-19.253-60.354-41.26-99.126-64.497c-38.76-23.244-83.128-47.713-132.405-72.163
		c-49.267-24.468-103.426-48.927-161.483-72.543c-58.055-23.629-119.996-46.423-184.674-67.901
		c-64.673-21.489-132.078-41.666-200.992-60.313c-68.916-18.652-139.34-35.777-210.046-51.323
		c-141.418-31.118-283.941-55.846-417.92-74.931c-133.987-19.112-259.435-32.633-366.984-42.017
		c-107.559-9.394-197.225-14.67-259.862-17.563c-62.643-2.896-98.261-3.416-97.858-3.409c3.774-0.272,7.819-0.522,11.817-0.759
		l12.062-0.686l24.23-1.229c16.183-0.768,32.402-1.442,48.635-2.043c32.47-1.198,65.002-2.101,97.563-2.759
		c89.858,6.275,179.614,14.396,269.155,24.218c89.542,9.834,178.877,21.392,267.892,34.805
		c89.014,13.42,177.709,28.696,265.924,46.105c88.21,17.416,175.942,36.961,262.929,59.071
		c86.98,22.118,173.227,46.788,258.276,74.656c85.035,27.882,168.899,58.942,250.748,94.128
		c81.821,35.194,161.669,74.511,237.927,119.23C2090.211,1912.217,2162.885,1962.398,2228.895,2019.456z"/>
	<path fill="#FFFFFF" d="M2025.603,1853.193c-2.53-1.41-11.048-6.326-24.946-14.052c-13.9-7.72-33.194-18.234-57.361-30.661
		c-24.166-12.424-53.21-26.76-86.573-42.106c-33.357-15.353-71.029-31.729-112.341-48.362
		c-41.306-16.646-86.249-33.554-134.041-50.165c-47.788-16.621-98.425-32.938-151.041-48.585
		c-105.224-31.334-218.394-59.818-332.14-84.149c-113.742-24.38-228.034-44.674-335.404-60.972
		c-107.372-16.32-207.816-28.683-293.951-37.849c-86.139-9.174-157.965-15.188-208.223-19.011
		c-50.262-3.803-78.958-5.51-78.956-5.536c52.155-0.97,104.383-1.311,156.655-1.065c143.877,13.613,287.324,31.579,429.938,54.366
		c142.598,22.825,284.392,50.482,424.563,84.437c140.127,34.004,278.718,74.253,413.827,123.55
		c67.532,24.668,134.167,51.629,199.395,81.44C1900.217,1784.291,1964.043,1816.957,2025.603,1853.193z"/>
	<path fill="#FFFFFF" d="M1837.514,1736.443c-4.316-1.814-29.058-12.969-69.677-29.639c-40.617-16.657-97.21-38.627-165.124-61.863
		c-67.894-23.281-147.108-47.775-232.333-70.814c-85.21-23.092-176.406-44.755-267.857-63.775
		c-91.447-19.058-183.135-35.509-269.208-49.129c-86.073-13.639-166.526-24.475-235.509-32.82
		c-68.985-8.349-126.5-14.238-166.75-18.126c-40.253-3.87-63.238-5.796-63.237-5.812c41.825,0.197,83.679,0.773,125.554,1.727
		c115.166,12.975,230.001,28.781,344.294,47.772c114.286,19.009,228.039,41.202,340.867,67.338
		c112.813,26.157,224.726,56.233,334.957,91.522C1623.687,1648.142,1732.264,1688.638,1837.514,1736.443z"/>
	<path fill="#FFFFFF" d="M1713.384,1667.281c-3.548-1.281-23.924-9.159-57.159-21.129c-33.236-11.96-79.373-27.905-134.436-45.145
		c-55.052-17.263-119.031-35.785-187.657-53.618c-68.616-17.867-141.867-35.05-215.226-50.509
		c-73.355-15.481-146.809-29.259-215.733-40.96c-68.923-11.72-133.31-21.387-188.512-29.039
		c-55.203-7.656-101.22-13.321-133.424-17.133c-32.206-3.802-50.596-5.785-50.595-5.797c33.552,0.948,67.117,2.141,100.693,3.587
		c92.106,12.24,183.963,26.366,275.452,42.625c91.486,16.265,182.606,34.658,273.159,55.598
		c90.547,20.946,180.534,44.429,269.605,71.084C1538.611,1603.511,1626.775,1633.336,1713.384,1667.281z"/>
	<path fill="#FFFFFF" d="M1610.717,1614.445c-5.777-1.801-66.34-22.975-155.281-48.93c-44.464-12.986-96.02-27.128-151.207-41.011
		c-55.181-13.903-113.989-27.542-172.822-40.058c-58.83-12.529-117.681-23.944-172.876-33.84
		c-55.194-9.904-106.73-18.301-150.906-25.072c-44.177-6.773-80.993-11.937-106.757-15.45l-40.477-5.388
		c26.853,1.271,53.711,2.701,80.576,4.303c147.349,22.066,294.026,49.106,439.358,82.604
		C1325.616,1525.16,1469.641,1565.109,1610.717,1614.445z"/>
	<path fill="#FFFFFF" d="M1546.049,1580.974c-4.654-1.356-53.585-17.24-125.12-37.354c-35.765-10.062-77.182-21.149-121.46-32.209
		c-44.276-11.07-91.413-22.109-138.536-32.401c-47.122-10.306-94.229-19.871-138.395-28.297
		c-44.165-8.434-85.387-15.733-120.718-21.702c-70.667-11.912-117.741-18.67-117.734-18.72c21.506,1.428,43.016,2.966,64.529,4.618
		c117.788,19.678,235.083,42.732,351.509,70.02C1316.535,1512.24,1432.104,1543.76,1546.049,1580.974z"/>
</g>
<g>
	<path fill="#FFFFFF" d="M75.006,1552.007c12.615,0.972,24.986,2.134,37.507,3.403c-8.743-0.419-17.676-0.736-26.518-1.015
		c23.134,1.884,45.854,4.315,70.208,6.68c57.145,5.604,111.021,13.192,164.304,23.641c26.636,5.242,53.114,11.231,79.706,18.238
		c26.588,7.013,53.292,15.042,80.299,24.499c40.874,14.322,80.807,31.301,119.218,51.376c38.395,20.074,75.279,43.271,109.633,70.02
		c34.342,26.729,66.128,57.06,93.964,90.894c27.855,33.797,51.665,71.1,70.503,110.787c7.247,15.503,12.622,27.311,13.076,25.531
		c0.568-1.195-3.834-14.753-11.15-30.207c-14.091-30.151-31.178-58.992-50.792-85.896c-19.602-26.921-41.707-51.894-65.577-74.722
		c-23.873-22.838-49.494-43.547-76.197-62.26c-26.709-18.72-54.498-35.462-82.88-50.509
		c-56.806-30.087-115.862-53.467-175.062-72.329c-59.243-18.835-118.707-33.158-177.44-44.383
		c-21.05-3.968-39.08-7.935-68.214-11.807c-40.835-5.317-81.52-7.773-114.142-7.854c-16.314-0.056-30.616,0.448-41.949,1.328
		c-5.668,0.438-10.593,0.97-14.667,1.565c-2.037,0.298-3.861,0.611-5.465,0.938c-0.804,0.163-1.547,0.329-2.25,0.498
		c-0.761,0.172-1.449,0.346-2.063,0.52c-4.07,1.398-3.888,2.686-0.075,3.815c2.326,0.56,5.252,1.117,9.063,1.674
		c3.8,0.558,8.418,1.116,13.784,1.692c21.462,2.298,54.911,4.9,95.446,8.639C103.225,1554.991,89.136,1553.401,75.006,1552.007z"/>
	<path fill="#FFFFFF" d="M73.765,1575.975c12.416,0.962,24.599,2.111,36.933,3.367c-8.613-0.409-17.411-0.718-26.117-0.988
		c22.777,1.862,45.166,4.268,69.161,6.595c56.307,5.517,109.375,12.982,161.757,23.239c52.35,10.323,104.082,23.41,156.917,41.858
		c39.964,13.996,78.895,30.557,116.199,50.054c37.29,19.497,72.959,41.952,106.036,67.711c33.069,25.741,63.518,54.825,90.11,87.14
		c26.612,32.285,49.29,67.802,67.27,105.618c6.911,14.773,12.076,26.022,12.553,24.308c0.584-1.157-3.582-14.104-10.56-28.839
		c-13.435-28.748-29.714-56.231-48.434-81.914c-18.709-25.697-39.839-49.586-62.735-71.489
		c-22.898-21.912-47.546-41.851-73.328-59.926c-25.785-18.081-52.699-34.312-80.271-48.938
		c-55.18-29.247-112.866-52.132-170.885-70.638c-58.062-18.483-116.529-32.601-174.358-43.679
		c-20.727-3.917-38.484-7.844-67.192-11.665c-40.237-5.249-80.348-7.66-112.445-7.719c-16.05-0.044-30.101,0.468-41.188,1.351
		c-5.545,0.44-10.349,0.973-14.297,1.567c-3.971,0.596-6.986,1.25-9.242,1.948c-4.07,1.398-3.888,2.685-0.075,3.814
		c4.031,1.135,11.463,2.225,21.977,3.372c20.982,2.292,53.909,4.875,93.84,8.566C101.547,1578.934,87.671,1577.357,73.765,1575.975z
		"/>
	<path fill="#FFFFFF" d="M72.523,1599.942c12.216,0.951,24.212,2.089,36.358,3.331c-8.483-0.399-17.147-0.699-25.716-0.959
		c22.419,1.839,44.476,4.219,68.113,6.508c55.47,5.429,107.73,12.771,159.211,22.837c51.448,10.129,102.195,22.96,153.83,40.979
		c39.055,13.67,76.983,29.813,113.18,48.732c36.185,18.918,70.64,40.633,102.439,65.401c31.795,24.754,60.907,52.591,86.255,83.386
		c25.368,30.772,46.915,64.504,64.037,100.448c6.576,14.045,11.529,24.735,12.031,23.085c0.6-1.118-3.331-13.457-9.97-27.471
		c-12.779-27.345-28.25-53.471-46.076-77.933c-17.815-24.474-37.972-47.277-59.894-68.256
		c-21.923-20.985-45.599-40.155-70.458-57.592c-24.862-17.442-50.902-33.161-77.662-47.366
		c-53.554-28.408-109.868-50.798-166.708-68.948c-56.88-18.132-114.352-32.042-171.276-42.974
		c-20.403-3.865-37.889-7.753-66.17-11.524c-39.64-5.179-79.177-7.547-110.749-7.581c-15.787-0.033-29.586,0.485-40.429,1.371
		c-10.819,0.885-18.785,2.132-22.633,3.512c-4.07,1.398-3.888,2.685-0.075,3.814c3.521,1.145,10.882,2.231,21.105,3.377
		c20.502,2.286,52.908,4.85,92.235,8.494C99.869,1602.876,86.206,1601.314,72.523,1599.942z"/>
	<path fill="#FFFFFF" d="M71.282,1623.912c12.016,0.939,23.825,2.064,35.784,3.292c-8.353-0.39-16.882-0.678-25.315-0.932
		c22.062,1.817,43.786,4.171,67.065,6.423c54.633,5.342,106.085,12.561,156.664,22.436c50.547,9.935,100.309,22.51,150.742,40.104
		c38.146,13.342,75.072,29.066,110.162,47.408c35.08,18.34,68.321,39.313,98.842,63.092c30.522,23.768,58.296,50.355,82.401,79.632
		c24.125,29.26,44.539,61.206,60.804,95.279c6.239,13.315,10.982,23.446,11.508,21.86c0.616-1.079-3.079-12.809-9.38-26.102
		c-12.123-25.941-26.786-50.71-43.718-73.951c-16.922-23.251-36.104-44.969-57.052-65.022
		c-41.915-40.149-90.766-73.513-142.641-101.053c-51.928-27.568-106.872-49.463-162.531-67.257
		c-55.699-17.78-112.174-31.484-168.193-42.271c-20.08-3.814-37.293-7.662-65.149-11.384c-39.042-5.108-78.005-7.434-109.052-7.444
		c-15.524-0.021-29.071,0.505-39.668,1.395c-5.298,0.444-9.86,0.978-13.557,1.572c-1.848,0.298-3.48,0.61-4.874,0.935
		c-0.696,0.162-1.336,0.326-1.902,0.494c-0.515,0.168-0.981,0.337-1.396,0.506c-4.07,1.398-3.888,2.685-0.074,3.814
		c1.449,0.579,4.109,1.136,7.534,1.695c3.433,0.558,7.696,1.115,12.7,1.687c20.022,2.28,51.906,4.824,90.63,8.421
		C98.191,1626.818,84.741,1625.271,71.282,1623.912z"/>
</g>
<g>
	<path fill="#FFFFFF" d="M2417.414,1016.838c-111.462,55.415-225.6,105.58-342.042,149.785
		c-116.436,44.208-235.177,82.447-355.665,114.084c-120.484,31.639-242.713,56.668-365.968,74.577
		c-123.25,17.913-247.521,28.709-371.974,31.997c-124.449,3.287-249.081-0.911-372.967-13.021
		c-123.88-12.147-247.029-32.069-368.359-61.084c-45.021-4.79-90.1-10.839-135.313-18.5c-22.612-3.839-45.251-8.079-68.021-12.881
		c-10.043-2.12-20.113-4.357-30.259-6.746v4.798c22.881,8.197,55.08,19.011,95.764,30.902
		c42.728,12.498,94.777,26.179,154.912,39.301c60.127,13.128,128.344,25.688,203.198,36.078
		c74.846,10.399,156.331,18.616,242.77,23.311c86.433,4.711,177.815,5.886,272.266,2.607
		c94.447-3.259,191.952-10.982,290.523-23.532c98.573-12.528,198.201-29.886,296.927-51.803
		c98.731-21.896,196.552-48.348,291.684-78.482c95.143-30.121,187.593-63.911,275.855-100.032
		c88.274-36.109,172.362-74.534,251.07-113.626c78.717-39.087,152.061-78.829,219.086-117.448
		c134.074-77.265,242.836-149.88,320.231-204.015c31.685-22.179,58.116-41.273,78.866-56.486v-1.262
		C2815.346,797.089,2620.911,915.684,2417.414,1016.838z"/>
	<path fill="#FFFFFF" d="M361.607,1329.398c68.296,12.232,166.483,26.983,285.261,35.811c59.374,4.431,123.866,7.395,192.16,8.057
		c68.291,0.674,140.38-0.964,214.859-5.469c74.478-4.492,151.34-11.857,229.135-22.307c77.796-10.438,156.52-23.957,234.744-40.392
		c78.228-16.421,155.951-35.749,231.839-57.447c75.893-21.686,149.948-45.733,220.98-71.288
		c71.038-25.548,139.053-52.597,203.021-80.072c63.975-27.471,123.906-55.361,178.916-82.474
		c110.038-54.23,200.352-105.273,264.896-143.419c32.275-19.086,58.123-34.958,76.764-46.561
		c18.637-11.609,30.072-18.942,33.415-21.143c-167.958,103.547-343.153,195.57-524.587,273.163
		c-181.392,77.604-369.027,140.73-560.751,186.785c-191.687,46.085-387.433,75.084-584.075,85.225
		c-196.609,10.129-394.131,1.586-588.61-27.463c-71.379-1.241-143.05-5.252-214.887-12.467c0.002-0.011,9.666,2.198,27.852,6.051
		C300.729,1317.826,327.447,1323.283,361.607,1329.398z"/>
	<path fill="#FFFFFF" d="M556.555,1318.554c54.386,5.857,132.375,12.651,226.363,15.347c46.986,1.356,97.958,1.692,151.89,0.505
		c53.93-1.182,110.818-3.891,169.597-8.46c58.778-4.562,119.444-10.986,180.914-19.389c61.471-8.396,123.742-18.771,185.748-31.007
		c62.006-12.229,123.746-26.315,184.2-41.915c60.456-15.592,119.628-32.69,176.574-50.748
		c113.922-36.075,218.845-76.095,308.298-113.991c89.485-37.873,163.57-73.481,216.696-100.129
		c53.114-26.695,85.381-44.281,90.936-47.335c-138.859,72.147-281.978,135.991-428.61,190.106
		c-146.615,54.123-296.746,98.501-449.183,131.914c-152.422,33.427-307.142,55.888-462.557,66.508
		c-155.401,10.621-311.504,9.447-466.356-4.295c-56.354,2.497-112.976,3.328-169.782,2.381l22.242,3
		C508.042,1312.939,529.355,1315.623,556.555,1318.554z"/>
	<path fill="#FFFFFF" d="M938.434,1301.214c74.364-1.712,161.206-6.643,254.007-16.653c92.8-9.935,191.523-24.996,289.611-44.954
		c98.105-19.876,195.538-44.629,286.222-71.77c90.71-27.083,174.67-56.483,246.559-84.097
		c71.907-27.596,131.779-53.313,174.817-72.531c43.033-19.246,69.296-31.889,73.817-34.1c-112.82,51.703-228.138,97.74-345.5,137.42
		c-117.356,39.684-236.759,73.004-357.574,99.372c-120.81,26.37-243.031,45.79-365.87,57.799
		c-122.833,12.015-246.286,16.629-369.417,13.486c-44.471,4.845-89.17,8.677-134.056,11.459c0.002-0.047,24.627,1.681,67.874,3.336
		C802.166,1301.6,864.058,1302.959,938.434,1301.214z"/>
	<path fill="#FFFFFF" d="M916.672,1272.118c34.281-0.558,83.301-1.94,142.127-5.71c58.821-3.747,127.444-9.952,200.785-19.569
		c73.343-9.572,151.385-22.586,229.073-38.71c77.698-16.072,155.023-35.244,227.216-55.764
		c72.208-20.481,139.282-42.271,196.889-62.556c57.617-20.271,105.79-38.979,140.478-52.93
		c34.685-13.969,55.924-23.106,59.577-24.716c-182.254,74.542-370.417,133.858-562.146,175.445
		c-191.69,41.615-386.931,65.498-582.322,69.993c-35.007,5.592-70.186,10.563-105.516,14.896
		C862.833,1272.47,882.388,1272.651,916.672,1272.118z"/>
	<path fill="#FFFFFF" d="M1179.2,1233.059c46.558-4.873,100.843-11.704,158.87-20.893c58.029-9.16,119.789-20.693,181.348-34.2
		c61.565-13.476,122.921-28.917,180.32-45.035c57.408-16.095,110.862-32.838,156.865-48.259
		c46.009-15.41,84.58-29.455,112.387-39.895c27.804-10.449,44.865-17.242,47.794-18.443
		c-146.335,55.325-296.165,100.683-448.269,134.834c-152.088,34.162-306.444,57.115-461.415,67.974
		c-27.593,5.77-55.311,11.159-83.146,16.155c-0.001-0.019,15.513-0.747,42.685-2.557
		C1093.81,1240.918,1132.64,1237.945,1179.2,1233.059z"/>
</g>
</svg>
