<?xml version="1.0" encoding="utf-8"?>
<!-- Generator: Adobe Illustrator 17.1.0, SVG Export Plug-In . SVG Version: 6.00 Build 0)  -->
<!DOCTYPE svg PUBLIC "-//W3C//DTD SVG 1.1//EN" "http://www.w3.org/Graphics/SVG/1.1/DTD/svg11.dtd">
<svg version="1.1" id="Layer_1" xmlns="http://www.w3.org/2000/svg" xmlns:xlink="http://www.w3.org/1999/xlink" x="0px" y="0px"
	 viewBox="0 0 85 85" enable-background="new 0 0 85 85" xml:space="preserve">
<circle fill="#333745" cx="42.5" cy="42.5" r="39.4"/>
<g>
	<defs>
		<circle id="SVGID_1_" cx="42.5" cy="42.5" r="39.4"/>
	</defs>
	<clipPath id="SVGID_2_">
		<use xlink:href="#SVGID_1_"  overflow="visible"/>
	</clipPath>
	<path clip-path="url(#SVGID_2_)" fill="#FFFFFF" d="M54.4,29.8l0.3-0.5c0,0,2.1,0.9,2.4,0.2c0.1-0.3,0.3-1.1,0.3-1.1
		s0.2-0.1,0.3-0.2c0,0-0.1-0.4-0.1-0.4s0.3,0,0.4,0c0.1,0,0.1,0,0.1-0.1c0-0.1,0.2-0.8,0.2-0.8s0.5,0,0.7-0.1c0.1,0,0.3-0.3,0.2-0.5
		c-0.2-0.4-0.3-1.1-0.3-1.1s-0.2-0.7-0.1-0.9c0.2-0.4,0.5-0.6,0.5-1c0-0.3,0-0.6,0.1-0.7c0.1-0.1,0.3-0.2,0.3-0.4
		c0.1-0.1,0.2-0.5,0.1-0.6c0-0.1-0.1-0.2-0.1-0.2s0-0.2,0.1-0.2c0.1,0,0.2-0.1,0.2-0.2c0-0.1-0.4-0.1-0.5-0.2
		c-0.1,0-0.1-0.2-0.1-0.2s0,0,0.2-0.1c0.1-0.1,0.2-0.2,0.2-0.2s-0.6-0.5-0.9-0.7c-0.2-0.1-0.5-0.1-0.6-0.2c-0.2-0.2-0.2-0.5-0.4-0.7
		c-0.2-0.1-0.7-0.2-0.9-0.3c-0.2-0.2-0.7-0.5-1-0.6c-0.2-0.1-0.6-0.2-0.7-0.2c-0.2,0-0.7-0.1-0.9-0.1c-0.3,0-1.1,0-1.4,0.1
		c-0.6,0.2-1.6,0.9-2,1.3c-0.2,0.2-0.5,0.6-0.7,0.9c-0.2,0.2-0.4,0.7-0.5,1c-0.1,0.2-0.2,0.7-0.3,0.9c-0.1,0.3-0.3,0.8-0.4,1
		c-0.1,0.3-0.1,0.8-0.1,1c0,0.3,1.1,1.7,1.1,1.7l-0.2,1l-0.3,1l-0.2,0.1c0,0-1.4-0.2-1.6-0.2c-2.1-1.6-4-1.1-4.8-1.3
		c-0.6-0.1-1.8-0.2-2.3-0.4c-0.2-0.1-3.6-0.7-4.6-0.6c-0.4,0-1.5,0.5-1.8,0.6c-2.2,0.4-4,1.4-4.8,1.8c-0.5,0.3-2.2,1.6-2.7,1.8
		c-0.3,0.2-1,0.5-1.4,0.7c0,0-0.9,0.4-0.9,0.4c-0.3,0.1-0.8,0.2-1,0.3c-0.2,0.1-0.5,0.2-0.7,0.2c-0.2,0.1-0.5,0.2-0.6,0.3
		c-0.1,0.1-0.3,0.1-0.5,0.2c-0.1,0-0.4,0.1-0.6,0.2c-0.1,0-0.4,0.1-0.5,0.2c-0.1,0.1-0.3,0.2-0.4,0.3c-0.1,0.1-0.3,0.2-0.3,0.3
		c0,0,0,0.1,0,0.2c0,0,0.1,0.1,0.1,0.1c0.1,0,0.2,0,0.3,0c0.1,0,0.4-0.3,0.4-0.3s0.3-0.1,0.4-0.1c0.1,0,0.6-0.1,0.6-0.1l-0.3,0.2
		l-0.5,0.3c0,0-0.3,0.2-0.4,0.3c-0.1,0.1-0.2,0.2-0.2,0.2c-0.1,0.1-0.2,0.2-0.2,0.2c-0.1,0.1-0.4,0.3-0.4,0.5c0,0.1,0,0.2,0,0.2
		s-0.2,0.2-0.2,0.2c0,0-0.1,0.1-0.2,0.2c0,0,0,0.2,0,0.2c0,0,0.1,0.1,0.1,0.1c0.1,0,0.2,0,0.3,0c0.1,0,0.3-0.1,0.4-0.2
		c0.1,0,0.7-0.5,0.9-0.5c0.2-0.1,0.5-0.2,0.6-0.3c0.1,0,0.5-0.2,0.5-0.2v0.1c0,0-0.2,0.2-0.3,0.3c-0.1,0.1-0.4,0.2-0.5,0.3
		C21,34.6,20.4,35,20.3,35c-0.1,0-0.3,0.1-0.4,0.2c-0.1,0.1-0.1,0.2-0.1,0.3c0,0.1,0.1,0.1,0.2,0.2c0.1,0,0.2,0,0.3,0
		c0.2,0,0.4-0.2,0.6-0.2c0.2-0.1,0.5-0.2,0.6-0.3c0.1-0.1,0.4-0.3,0.6-0.4c0.1-0.1,0.6-0.3,0.6-0.3l0.4-0.2h0.5l-0.1,0.3
		c0,0-0.2,0.4-0.2,0.5c0,0.1,0,0.4,0,0.5c0,0.1,0,0.3,0.1,0.3c0,0.1,0.1,0.2,0.2,0.2c0,0,0.2,0.1,0.2,0.1c0,0,0.1,0,0.2,0
		c0.1,0,0.1-0.2,0.1-0.3c0-0.1,0-0.3,0-0.4c0-0.1,0.1-0.3,0.2-0.5c0-0.1,0.1-0.3,0.2-0.4c0.1-0.1,0.2-0.4,0.2-0.4l0.4-0.8l0.3-0.7
		l0.1-0.4c0,0,0.2-0.2,0.3-0.3l0.1,0c0.9-0.2,4.7-1,7.2-2.3c0.3-0.1,1.4-0.8,1.7-0.9c0.1,0,0.2,0,0.3,0l0.6,0.2
		c0.3,0.1,1.7,0.9,2.4,1.1c0.6,0.2,2.8,0.6,2.8,0.6l0.9,0.2c0,0-1.2,1.8-4,3.6c-3.2,2-7.4,3.8-7.8,4c-1.8,0.9-2.8,2.6-3.5,3.7
		c-0.7,1.1-0.9,3.7-1,4.3c-0.1,0.5-0.2,1.6-0.3,2.1c-0.1,0.4-0.4,1.3-0.6,1.8c-0.2,0.5-1.5,2-1.8,2.4c-0.3,0.5-0.9,1.4-1.1,2
		c-0.5,1.2-1.3,4.1-1.7,4.8c-0.1,0.3-0.3,0.7-0.5,1.1L19,60.9c-0.1,0.1-0.4,0.3-0.5,0.3c-0.3,0.1-1.2,0.3-1.6,0.4
		c-2.4,0.7-5.3,4.3-5.8,4.8c-0.3,0.4-1.2,1.6-1.6,2c-0.2,0.2-0.7,0.6-1,0.6l-0.2-0.1c0,0-0.3-0.2-0.4-0.2c-0.1,0-0.4-0.1-0.6-0.2
		c-0.2,0-0.6-0.1-0.8-0.1c-0.2,0-0.7,0.2-0.9,0.2c-0.1,0-0.8,0.1-1,0.1c-0.1,0-0.3-0.1-0.4,0c-0.1,0-0.1,0.1-0.2,0.2
		c0,0.1-0.1,0.2-0.1,0.3c0,0.2-0.1,0.6-0.1,0.8c0,0.3-0.1,0.9-0.1,1.2c0,0.4,0.1,1.1,0.2,1.5c0,0.4,0,1.3,0,1.7
		c0,0.3-0.2,0.9-0.2,1.2c0,0.2-0.1,1.3-0.2,1.5c0,0.2,0.1,0.7,0.1,0.7l0.3,0.6L3.7,79l0.5,0.4L3.9,80l0.5,0.3c0,0,0.1,0.4,0.2,0.4
		c0.1,0.1,0.7,0.2,0.8,0.2c0.1,0,0.3,0,0.4,0c0.1,0,0.3-0.2,0.3-0.3c0.1-0.1,0.2-0.4,0.2-0.6c0-0.2,0-0.7,0-0.9c0-0.2,0-0.7,0.1-0.9
		c0.1-0.3,0.2-1,0.4-1.4c0.1-0.2,0.4-1.3,0.5-1.5c0.1-0.1,0.3-0.4,0.5-0.5c0.2-0.1,0.5-0.2,0.7-0.3c0.1-0.1,0.3-0.2,0.4-0.3
		c0.1-0.1,0.3-0.4,0.3-0.5c0-0.1-0.1-0.2-0.1-0.3c-0.1-0.1,0.5-1.1,0.5-1.1l0.1-0.1c0.4-0.3,0.9-0.6,1.2-0.8
		c0.6-0.3,1.7-0.8,2.3-1.2c0.5-0.3,2.8-1.7,3.6-2.2c0.7-0.4,2.2-2.1,4-2.5c0.1,0,0.3-0.1,0.5-0.1l0.4-0.1c0.9-0.3,3.1-1.6,3.4-1.9
		c0.2-0.3,1.6-1.8,1.8-1.9c0,0,2.2-2.5,2.2-2.3c1.5-1.6,1.8-3.6,1.9-4c0.2-0.4,1.4-1.7,1.4-1.7c2.1,1.4,6.6,2,6.9,2.1
		c0.5,0.1,2,0.7,2,0.7s-0.8,0.3-1,0.4c-0.3,0.1-0.8,0.5-1,0.7c-0.4,0.3-1.1,0.9-1.5,1.2c-0.3,0.2-0.8,0.6-1.1,0.8
		c-0.3,0.2-0.8,0.6-1.1,0.7c-0.1,0-0.2,0.1-0.3,0.1l-0.2-0.1c0,0-0.3-0.2-0.4-0.2c-0.2-0.1-0.5-0.1-0.6-0.2c-0.2,0-0.6-0.1-0.8-0.1
		c-0.2,0-0.7,0.2-0.9,0.2c-0.1,0-0.4,0.1-0.6,0.1c-0.1,0-0.3-0.1-0.4,0c-0.1,0-0.2,0.1-0.2,0.2c0,0.1-0.1,0.2-0.1,0.3
		c0,0.2-0.1,0.6-0.1,0.8c0,0.3-0.1,0.9-0.1,1.2c0,0.4,0.1,1.2,0.2,1.6c0,0.5,0,1.4,0,1.8c0,0.3-0.2,0.9-0.2,1.2c0,0.2-0.1,0.7-0.2,1
		c0,0.2,0.1,0.7,0.1,0.7l0.3,0.6l-0.2,0.7l0.5,0.4l-0.3,0.6l0.5,0.3c0,0,0.1,0.4,0.2,0.5c0.1,0.1,0.3,0.2,0.5,0.2c0.1,0,0.4,0,0.5,0
		c0.1-0.1,0.3-0.2,0.3-0.3c0.1-0.1,0.2-0.4,0.2-0.6c0-0.2,0-0.7,0-1c0-0.2,0-0.7,0.1-0.9c0.1-0.4,0.2-1.1,0.4-1.4
		c0.1-0.2,0.4-0.7,0.6-0.9c0.1-0.1,0.3-1.2,0.5-1.3c0.2-0.1,0.5-0.2,0.7-0.3c0.1-0.1,0.3-0.2,0.4-0.3c0.1-0.1,0.3-0.4,0.3-0.5
		c0-0.1-0.1-0.3-0.1-0.3c-0.1-0.1-0.4-0.3-0.4-0.3l0.2-0.2c0.4-0.3,1.2-0.8,1.6-1c0.5-0.3,1.4-0.7,1.9-0.9c0.5-0.2,1.4-0.5,1.9-0.6
		c0.9-0.3,2.7-0.7,3.6-1c0.9-0.3,2.7-1.3,3.5-1.8c0.8-0.5,1.5-0.7,1.9-1c0.3-0.3,0.9-1,1.1-1.4c0.3-0.7,0.1-1.3,0-1.8
		c-0.1-0.5-0.4-1.6-2.1-2.7c-1.1-0.8-2.7-1.7-4.4-2.6c-1-0.6-3.2-1.3-4.3-1.6c-0.6-0.2-1.5-0.7-2.2-1.1c0,0-0.1-1.3,0.5-1.3
		c0.7-0.3,2.4-0.5,2.7-0.6c0.3-0.1,2.8-1.1,3-1.3c0.8-0.5,2.7-0.9,3.6-1.3c0.7-0.3,2.1-0.9,2.7-1.3c0.4-0.2,2.4-1.7,2.8-2.2
		c0.3-0.4,0.8-1.2,1.2-1.4c0.3-0.2,1-0.4,1.4-0.5c0.3,0,2.8,0,3.2,0.2c0.5,0.2,1.5,0.4,2,0.4c0.5,0,1.5-0.1,2-0.1
		c0.7-0.1,2-0.4,2.7-0.5c0.4,0,1.2,0,1.6-0.1c0.1,0,0.4-0.2,0.5-0.3c0.5-0.7,1.1-2.4,1.4-3.2c0.3-0.9,1.1-3.7,1.1-3.7
		s0.5-2.3,0.6-3.1c0-0.2,0-0.8,0-0.8c0-0.1,0-0.3,0-0.4c0.1-0.4,0.2-0.9,0.2-1.3c0-0.5,0-1-0.1-1.4c-0.1-0.6-0.3-1-0.3-1.5
		c0-0.2-0.2-1.3-0.5-1.2c-0.4,0.1-0.2,1-0.2,1.2c0,0.2,0,0.5,0,0.6c0,0.1,0,0.4,0,0.4c0-0.2-0.1-0.5-0.1-0.7c0-0.3-0.1-0.5-0.1-0.7
		c-0.1-0.6-0.1-1.6-0.3-1.7c-0.3-0.1-0.4,0.1-0.4,0.3c0,0.3,0,0.8,0,1.2c0,0.4,0.1,0.9,0,0.9c0,0-0.1,0-0.1-0.1
		c0-0.4-0.1-0.8-0.2-1.2c0-0.3-0.1-0.6-0.1-0.9c0-0.3-0.1-0.9-0.4-0.9c-0.4,0-0.3,0.8-0.3,0.9c0,0.2,0,0.5,0,0.7
		c0,0.6,0.2,1.3,0.3,1.6c0,0.1,0,0.1,0,0.1c-0.1-0.3-0.2-0.6-0.3-0.9c-0.1-0.4-0.3-0.5-0.3-0.9c-0.1-0.3-0.2-1-0.6-0.7
		c0,0-0.1,0.1-0.1,0.2c0,0.5,0.1,0.9,0.2,1.5c0.1,0.3,0.1,0.6,0.2,0.9c0.1,0.3,0.3,0.7,0.2,1c0,0.2,0,0.5-0.2,0.6
		c-0.5-0.2-0.5-1-1.1-1.4c-0.2-0.1-0.5-0.1-0.6,0.1c-0.1,0.2,0.2,0.4,0.3,0.6c0.2,0.4,0.2,0.7,0.4,1.1c0.2,0.4,0.4,0.7,0.8,1
		c0.3,0.3,0.5,0.6,0.7,1c0,0.1,0.1,0.4,0.1,0.4c0.1,0.3,0.1,0.7,0.1,0.9c-0.1,0.5-0.5,1.3-0.7,1.7c-0.2,0.5-0.7,1.3-1,1.7
		c-0.2,0.3-0.8,0.9-1,1.2c-0.2,0.3-0.7,1.3-0.7,1.3s-1.4-0.5-1.9-0.6c-0.7-0.1-2.3,0-3.2,0.1c-0.6,0.1-1.2-0.2-1.5-0.4
		C57.2,30.4,55.3,30.4,54.4,29.8L54.4,29.8z"/>
</g>
</svg>
