<?xml version="1.0" encoding="utf-8"?>
<!-- Generator: Adobe Illustrator 17.1.0, SVG Export Plug-In . SVG Version: 6.00 Build 0)  -->
<!DOCTYPE svg PUBLIC "-//W3C//DTD SVG 1.1//EN" "http://www.w3.org/Graphics/SVG/1.1/DTD/svg11.dtd">
<svg version="1.1" id="Layer_1" xmlns="http://www.w3.org/2000/svg" xmlns:xlink="http://www.w3.org/1999/xlink" x="0px" y="0px"
	 viewBox="0 29.8 1360.6 904.2" enable-background="new 0 29.8 1360.6 904.2" xml:space="preserve">
<g display="none">
	<path display="inline" fill="#FFFFFF" d="M1004,971.9c-1.2-1-5.4-4.5-12.2-10.1c-6.9-5.5-16.5-13-28.8-21.7
		c-12.3-8.8-27.4-18.7-44.9-29.3c-17.6-10.5-37.7-21.6-60-32.7c-22.4-11.1-46.9-22.2-73.2-32.9c-26.4-10.7-54.4-21-83.8-30.8
		c-29.3-9.8-59.9-18.9-91.2-27.3c-31.2-8.5-63.2-16.2-95.2-23.3c-64.1-14.1-128.8-25.3-189.5-34s-117.6-14.8-166.5-19
		c-48.8-4.3-89.4-6.7-117.9-8c-28.4-1.3-44.6-1.5-44.4-1.5c1.7-0.1,3.5-0.2,5.4-0.4l5.5-0.3l11-0.5c7.3-0.4,14.7-0.6,22-0.9
		c14.7-0.5,29.5-1,44.3-1.3c40.8,2.9,81.5,6.5,122.1,11c40.6,4.4,81.1,9.7,121.5,15.8c40.4,6.1,80.6,13,120.6,20.9
		s79.8,16.8,119.2,26.8c39.5,10,78.6,21.2,117.2,33.9c38.6,12.7,76.6,26.7,113.7,42.7c37.1,16,73.3,33.8,107.9,54.1
		C941.1,923.2,974.1,946,1004,971.9z"/>
	<path display="inline" fill="#FFFFFF" d="M911.8,896.4c-1.1-0.6-5-2.9-11.3-6.4c-6.3-3.5-15.1-8.3-26-13.9
		c-11-5.6-24.1-12.2-39.3-19.1c-15.1-7-32.2-14.4-50.9-22c-18.7-7.5-39.1-15.2-60.8-22.8c-21.7-7.5-44.6-14.9-68.5-22
		c-47.7-14.2-99.1-27.1-150.6-38.1c-51.6-11.1-103.4-20.3-152.1-27.7c-48.7-7.4-94.2-13-133.3-17.1c-39.1-4.2-71.7-6.9-94.4-8.6
		c-22.8-1.7-35.8-2.5-35.8-2.5c23.7-0.5,47.3-0.6,71.1-0.5c65.3,6.2,130.3,14.3,195,24.7s129,22.9,192.6,38.3
		c63.5,15.4,126.4,33.7,187.7,56.1c30.6,11.2,60.9,23.4,90.4,36.9C854.9,865.2,883.8,880,911.8,896.4z"/>
	<path display="inline" fill="#FFFFFF" d="M826.5,843.5c-2-0.8-13.2-5.9-31.6-13.4c-18.4-7.6-44.1-17.5-74.9-28.1
		s-66.7-21.7-105.4-32.1c-38.6-10.5-80-20.3-121.5-28.9c-41.5-8.7-83-16.1-122.1-22.3c-39.1-6.2-75.5-11.1-106.8-14.9
		c-31.3-3.8-57.4-6.4-75.7-8.2c-18.3-1.8-28.7-2.6-28.7-2.6c19,0.1,38,0.4,57,0.8c52.2,5.9,104.3,13.1,156.2,21.7
		s103.4,18.7,154.6,30.5c51.2,11.9,101.9,25.5,151.9,41.5C729.5,803.4,778.8,821.8,826.5,843.5z"/>
	<path display="inline" fill="#FFFFFF" d="M770.2,812.1c-1.6-0.6-10.8-4.2-25.9-9.6c-15.1-5.4-36-12.7-61-20.5
		c-25-7.8-54-16.2-85.1-24.3c-31.1-8.1-64.4-15.9-97.6-22.9c-33.3-7-66.6-13.3-97.8-18.6c-31.2-5.3-60.5-9.7-85.5-13.2
		c-25-3.5-45.9-6-60.5-7.8c-14.6-1.7-22.9-2.6-22.9-2.6c15.2,0.4,30.4,1,45.7,1.6c41.8,5.5,83.5,12,125,19.3
		c41.5,7.4,82.8,15.7,123.9,25.2c41,9.5,81.9,20.1,122.3,32.2C690.9,783.2,730.9,796.7,770.2,812.1z"/>
	<path display="inline" fill="#FFFFFF" d="M723.6,788.1c-2.6-0.8-30.1-10.4-70.4-22.2c-20.2-5.9-43.5-12.3-68.6-18.6
		s-51.7-12.5-78.4-18.2c-26.7-5.7-53.4-10.8-78.4-15.3c-25-4.5-48.4-8.3-68.4-11.4c-20-3.1-36.7-5.4-48.4-7l-18.4-2.4
		c12.2,0.6,24.4,1.2,36.6,2c66.8,10,133.3,22.3,199.3,37.5C594.3,747.7,659.6,765.8,723.6,788.1z"/>
	<path display="inline" fill="#FFFFFF" d="M694.3,773c-2.1-0.6-24.3-7.8-56.7-17c-16.2-4.6-35-9.6-55.1-14.6
		c-20.1-5-41.5-10-62.8-14.7c-21.4-4.7-42.7-9-62.8-12.8c-20-3.8-38.7-7.1-54.7-9.8c-32.1-5.4-53.4-8.5-53.4-8.5
		c9.8,0.6,19.5,1.4,29.3,2.1c53.4,8.9,106.6,19.4,159.4,31.7C590.2,741.8,642.6,756.1,694.3,773z"/>
</g>
<g>
	<path fill="#FA4965" d="M165.5,1101.4c8.5-70.9,35-141.8,79.1-197.1c43.9-55.8,105.9-93.2,172-111.2c66.3-18.6,136-19.9,204.2-13.3
		c68.5,9,141.7,13.3,212.8-5c35.5-8.9,70.1-23.9,101.8-43.7c31.8-19.7,60.6-43.9,89.1-66.7c28.5-22.8,57.8-43.9,90.1-56.8
		c32.2-13.2,66.7-18,100.9-17c68.7,2.5,135.5,24,199.7,49.2c64.3,25.8,126.6,56.8,187.9,89.9c-60.6-34.4-122.3-66.7-186.3-93.9
		c-63.9-26.7-130.5-49.8-200.6-53.9c-34.9-1.8-70.8,2.4-104.6,15.5c-34,12.8-64.7,34.1-93.9,56.6c-29.2,22.5-57.8,45.6-88.8,64
		c-30.9,18.5-64,32-98.1,39.9c-68.6,16.1-138.2,10.8-206.9,0.3c-69.6-8.2-141.5-8.5-212,9.6c-70.2,17.4-138.8,56.7-188.2,117.1
		c-49.6,60.1-79.5,136.1-90.3,213.6L165.5,1101.4z"/>
	<path fill="#FB8F20" d="M122.2,1084.4c11.9-80.2,43.4-157.9,95-219.7c51.4-62,122.2-101.8,193.5-118.6
		c71.7-17.6,144-16.3,213.6-7.2c68.6,11.6,137.3,18.6,206.1,4.5c34.2-6.9,67.6-19.5,99-37.2c31.5-17.5,60.6-40.2,90-62.1
		c29.3-21.9,59.7-42.8,93-55.2c33.1-12.8,68-16.9,102.2-14.9c68.7,4.3,134.2,28,197.1,55.4c63,27.9,123.8,61,183.5,96.2
		c-58.8-36.3-118.8-70.7-181.1-99.9c-62.4-28.7-127.4-54-197.2-60.2c-34.8-2.9-71,0.3-105.7,12.6c-34.8,12-66.7,32.8-96.5,54.2
		c-29.9,21.5-58.7,43-89.2,59.4c-30.3,16.6-62.1,28-94.7,34.2c-65.9,12.5-131.1,5.2-199.3-7.9c-70.7-11.1-144.8-14.5-220.4,1.7
		c-75,15.7-152.7,55.1-210.4,120.6c-58,65.2-94,147.6-109.4,233.4C101.5,1077.3,111.9,1081,122.2,1084.4z"/>
	<path fill="#21C1CD" d="M73.3,1091.2c1.4-16.9,3.2-25.9,5.4-38.1c2.2-11.4,4.7-22.5,7.6-33.5c5.8-22,12.9-43.5,21.4-64.5
		c17-42,39.7-82.2,68.1-117.8c56.5-72.2,136.6-119.3,214.4-138.1c78.3-19.9,154.8-17.4,227-6.6c37.3,5.8,68.7,13.7,102,16.8
		c33,3.5,66.3,4,99.1-0.1c32.8-4.1,65.1-13.2,96.1-27.9c31.1-14.5,60.7-34.8,90.9-56c30.1-21.1,61.7-42.8,96.3-56.4
		c34.5-13.9,70.9-18.7,105.9-16.5c70.3,4.6,135.6,30.5,198.1,59.8c62.5,29.9,122.4,65.2,181.1,102.6
		c-57.6-38.4-116.5-74.9-178.1-106.1c-61.7-30.6-126.2-58-197.5-64.9c-35.5-3.2-73.1,0.4-109.1,13.5c-36.1,12.8-69.1,34.2-99.5,54.7
		c-30.5,20.6-59.6,39.9-89.4,53.5c-29.7,13.8-60.1,22.1-91.3,25.7c-31.1,3.7-62.8,2.8-94.5-0.9c-15.9-1.9-31.7-4.5-47.6-7.7
		c-15-3.1-32.8-7.3-51.4-10.6c-72.9-13.1-150.7-18-232.7-0.8c-81.2,16.5-168.3,61.7-232.1,136.1c-32,36.6-58,78.5-77.9,122.4
		C65.5,974,51.4,1018.7,43,1069C52.9,1076.6,63,1081.7,73.3,1091.2z"/>
	<path fill="#B7D93A" d="M208.7,1116.7c5.5-61.6,27-124.7,63.4-173.2c36.2-49.2,89.1-84.3,149.7-103.4
		c60.6-19.3,127.3-23.7,193.6-19.8c68.3,6.3,145.2,8.1,218.1-13.4c36.6-10.5,72.2-27.3,104.2-48.7c32.1-21.3,60.4-46.8,87.9-70.4
		c27.5-23.7,55.1-45.2,86.1-59.4c30.8-14.3,64.5-20.9,98.5-21.4c68.3-0.8,136.1,17.9,201.3,40.4c65.3,23,128.8,51.5,191.3,82.1
		c-62-32-125.2-61.9-190.4-86.5c-65.1-24-133-44.3-203.1-44.8c-34.9-0.1-70.1,6.2-102.6,20.7c-32.6,14.3-61.7,36.5-89.9,59.9
		c-28.2,23.4-56.6,47.8-88.2,67.6c-31.4,20-65.8,35-101.2,44.2c-70.8,18.8-144.5,15.2-212.9,7.5c-68-5.1-137.1-2-201.9,17.8
		C348,835.2,289,873.5,248,928.2c-41.2,54.2-65.3,123.3-72,191.4C186.9,1118.4,197.8,1117.4,208.7,1116.7z"/>
	<path fill="#21C1CD" d="M250.7,1128.9c3.6-53.3,20.6-107.3,50-148.7c29.2-41.9,73.6-74.3,128.9-93.5
		c55.1-19.3,118.4-26.1,182.5-24.3c68.6,4,148.4,3.2,223.3-21.5c37.7-12.1,74.3-30.7,106.6-53.7c32.5-22.9,60.4-49.4,86.7-73.5
		c26.4-24.2,52.1-45.9,81.1-60.7c28.8-15,61-22.9,94.2-25c66.7-3.9,134.7,11.8,200.1,31.7c65.6,20.3,129.7,46.2,192.8,74.3
		c-62.9-29.6-126.8-57-192.7-78.9c-65.6-21.4-134-38.7-202.7-35.7c-34.2,1.6-67.9,9.5-98.3,25.1c-30.6,15.3-57.7,37.8-85,61.9
		c-27.2,24.1-55.5,49.6-87.7,70.9c-32.1,21.4-67.8,38-104.5,48.5c-72.8,21.5-150.6,19.7-218,14.5c-65.8-2.6-131.7,3-190.5,23.4
		c-59,19.9-108.9,55.4-142.5,103.4c-33.8,47.3-53.3,108.7-57.3,167.6C228.7,1132.3,239.7,1130.4,250.7,1128.9z"/>
</g>
<g>
	<path fill="#FF3D2E" d="M1077.2,1472.2c43.7-64.7,94-124.3,152.3-176.3c58.3-51.4,125.5-96.4,205-117.2
		c38.8-10.6,83.6-12.5,122.7-8.1c37.7,2.1,74.2-5.4,103.6-25.2c59.9-40.1,88.9-115.7,136.8-176.9c23.7-31,52.9-59.2,88.3-78.3
		c35.2-19.4,75.4-29.3,115.9-32.2c20.6-1.8,40.7-0.3,59.2-2.5c18.9-2,37.3-6.2,54.5-13c34.4-13.7,62-39.6,81.2-71.5
		c39.2-64.2,50.2-144,81.3-215.5c15.4-35.4,38.5-70.2,74.9-87.7c36.1-17.8,79-17,118.8-9.7c-39.9-6.6-82.5-6.5-117.6,11.7
		c-35.4,17.9-57.4,52.4-71.9,87.7c-29.4,71.4-38.7,151.4-77.6,218.6c-19.1,33.3-47.7,61.6-84,76.8c-18,7.6-37.4,12.4-57.2,14.8
		c-19.9,2.7-40.1,1.6-59.4,3.7c-39,3.6-76.8,13.8-109.6,32.6c-32.9,18.6-59.8,45.7-82.1,76c-22.5,30.4-40.9,63.9-61.3,96.6
		c-20.5,32.4-43.4,65.1-76.6,87.8c-32.8,23.2-75,32.5-116.1,30.9c-40.5-3.6-78-1-114.9,9.5c-73.2,20.6-136.6,64.4-191.7,115.1
		c-55,51.2-103,110.3-143.8,173.6L1077.2,1472.2z"/>
	<path fill="#996400" d="M1126.6,1510.7c38.9-63,85.1-122.5,138.2-174c53.1-51.1,114.3-95.5,185.1-117.4c35.8-11,71.7-15,111.8-12
		c41.8,1.3,85.1-7.9,118.7-31.4c33.9-23.1,57-56.1,77-88.9c20.1-33,37.7-66.8,59.4-97.8c21.5-30.9,47.5-58.8,79.9-78.7
		c32.2-20.1,70-31.6,109.1-36.2c19.5-2.7,39.7-2.2,59-4.6c19.4-2.3,38.3-7,55.8-14.3c35.3-14.5,63.1-41.3,81.6-73.7
		c37.8-65.4,46-144.6,73.9-218.6c13.9-36.6,35.2-74.4,72.6-96.5c37.4-22.2,83.4-23.8,125-18.1c-41.6-5-87.1-2.5-123.4,19.9
		c-36.4,22.2-56.6,59.5-69.7,95.9c-26.4,73.7-32.8,152.7-69.7,221.1c-18.2,33.8-46.6,63.3-83.3,79.7c-18.2,8.3-37.9,13.7-58,16.8
		c-20.6,3.2-40.5,2.9-58.8,5.7c-37.5,5-73,16.3-102.8,35.4c-30.1,18.9-54.1,45.1-74.4,75.1c-20.4,30-37.1,63.5-56.6,97.5
		c-19.6,33.7-42.5,69.5-78.8,96.7c-36,27.6-84.5,40.3-129.7,40c-5.7,0.2-11.3-0.2-17-0.3c-4.9-0.1-8.7-0.2-13.1-0.1
		c-8.5,0.2-16.9,0.6-25.3,1.7c-16.8,1.9-33.3,5.6-49.4,10.7c-64.6,20.6-122.2,62.9-172.3,112.7c-50,50-94,108.5-130.5,169.7
		C1149.6,1521.2,1138.1,1515.9,1126.6,1510.7z"/>
	<path fill="#FFFFFF" d="M1172.7,1562.9c14.3-28.1,34.5-60.6,54.5-89.3c20.4-29.3,42.5-57.4,66.2-83.5c47.3-52,101.7-97.1,163-122.5
		c30.6-12.6,62.7-19.9,95.6-20c42.3,2,96.3-4.3,137.1-29.5c42-24.5,68.9-61.6,89.5-96.2c20.7-35.1,36.8-69.7,55.8-101.1
		c18.8-31.4,40.7-59.6,68.7-81.1c27.9-21.5,62-35.8,99-43c18.8-3.9,36.9-5.3,57.8-7.1c20.5-2.1,40.6-6.6,59.5-13.8
		c38.1-13.9,68.9-41.3,88.5-74.5c39.8-67.1,45.4-146.8,69.1-222.8c12-37.7,29.4-77.5,65.3-104.8c35.8-27.7,84.5-33.7,127.9-30.3
		c-43.1-2.7-91,4.1-125.8,31.6c-34.8,27.1-51.4,66.4-62.6,103.8c-22.3,75.5-26,154.7-64.4,225.1c-19,34.8-50.1,64.8-89.2,81.1
		c-19.4,8.2-40.2,13.5-61.3,16.5c-22.4,2.7-38.9,3.9-57.1,7.8c-35.3,7.3-67.2,20.8-93,40.9c-26,20-46.2,46.2-63.9,76.5
		c-17.9,30.3-33,64.4-52.8,100.5c-19.8,35.5-45.5,75.6-89.1,105.2c-43.2,30.1-99.7,41.4-149,40.3c-7.5-0.1-9.1,0.2-13.3,0.3
		l-10.8,0.9c-7.2,0.9-14.4,1.9-21.5,3.5c-14.2,3-28.2,7.5-42.1,13.2c-110.8,47.5-202.9,165.7-265.4,283.8
		C1197,1570.5,1184.3,1567.6,1172.7,1562.9z"/>
	<path fill="#FFC727" d="M1031.1,1432.3c48.3-65.6,102.5-124.8,165.6-176.9c63.1-51.3,136.1-96.5,223.6-115.9
		c21.8-4.7,44.4-7.7,67.4-8.2c11.5-0.4,23.1,0.1,34.7,0.8c5.6,0.4,12,1.2,17.1,1.7c4.1,0.4,8.4,1.1,12.5,1.3
		c33.2,2.9,62.6-2,88.2-17.5c52.8-30.9,86.3-104.1,137.2-165.8c25.6-31.1,57.2-59.8,94.9-78.7c37.6-19.2,79.6-28.2,121.1-29.9
		c10.4-0.5,20.8-0.5,31.2-0.2c9.7,0.3,18.8,0.3,28.1-0.2c18.4-1.1,36.4-4.3,53.3-10.1c33.9-11.5,62.3-35,82.9-65.6
		c41.7-61.5,56.3-141,88.6-210.1c16.1-34.3,38.7-66.6,72-82.7c33.1-16.3,72.7-15.2,110.6-7.4c-38-7.1-77.6-7.3-109.7,9.6
		c-32.3,16.6-53.8,48.9-69,83.3c-30.7,69.4-43.5,149.5-85.6,214c-20.7,32-50.7,57.6-86.8,70.2c-17.9,6.4-37,10.1-56.3,11.3
		c-19.2,1.4-39.4-0.1-59.6,1.6c-40.1,2.7-79.9,12.4-114.9,31.7c-35.1,19-64.2,47-88.2,77.7c-48.2,60.6-79.2,135.7-139.3,172.4
		c-29.5,18.1-65.1,23.8-102,20.9c-39.7-5.2-85.5-3-125.1,7.4c-81.1,20.6-149.8,65.5-209.5,116.7c-59.6,52-111.2,111.2-156.5,176.2
		C1048.8,1450.9,1040,1441.6,1031.1,1432.3z"/>
	<path fill="#FFFFFF" d="M988.5,1385c52.5-65.4,110.4-124.1,178.2-175.8c67.8-50.7,146.5-95.7,242.3-112.8
		c23.8-4.1,48.6-6.2,73.7-5.8c12.6,0.3,25.2,1,37.8,2.5l9.5,1.2c2.6,0.4,3.8,0.6,5.8,0.9c3.6,0.7,7.1,1,10.6,1.5
		c28,3,49.7,0.6,71.3-11.1c21.8-11.5,43.5-34.6,65-63.1c21.7-28.3,43.8-61.3,71.3-92.5c27.4-31.2,61.5-60.5,101.7-79.2
		c40-19.1,84.2-27.3,126.8-28c10.7-0.2,21.3,0,31.9,0.6c9.9,0.5,18.1,1,27.1,0.9c17.6-0.2,34.6-2.5,50.8-7.1
		c32.5-9,60.6-29.5,82-58.1c43.4-57.4,61.3-135.9,94.4-203.5c16.6-33.6,38.7-65.3,70.2-81c31.2-16.2,68.6-15.6,104.9-7.9
		c-36.7-7-74-6.7-104.3,10.2c-30.6,16.5-51.6,48.3-67.3,82.2c-31.7,68.1-47.6,147.7-92.1,207.9c-21.9,29.8-51.8,52.2-86.7,62
		c-17.3,5.2-35.6,7.4-54.2,7.9c-17.8,0.3-39.1-1.4-59.9-0.1c-41.4,1.9-83.4,11.4-120.8,31.1c-37.5,19.4-68.8,48.4-94.4,79.4
		c-50.7,61.5-85.8,133.5-137.8,160.4c-25.2,13.6-53.6,17-85.9,13.4c-4.6-0.6-7-1-13.2-1.7c-5.9-0.7-11.8-1.4-17.7-1.7
		c-11.8-1-23.6-1-35.3-0.8c-23.4,0.7-46.3,3.7-68.5,8.5c-88.8,19.8-162.7,65.1-226.8,116.4c-64.1,52.1-119.1,111.1-168.5,176.9
		C1003.2,1407.5,995.8,1396.3,988.5,1385z"/>
</g>
</svg>
