<?xml version="1.0" encoding="utf-8"?>
<!-- Generator: Adobe Illustrator 17.1.0, SVG Export Plug-In . SVG Version: 6.00 Build 0)  -->
<!DOCTYPE svg PUBLIC "-//W3C//DTD SVG 1.1//EN" "http://www.w3.org/Graphics/SVG/1.1/DTD/svg11.dtd">
<svg version="1.1" id="Layer_1" xmlns="http://www.w3.org/2000/svg" xmlns:xlink="http://www.w3.org/1999/xlink" x="0px" y="0px"
	 viewBox="0 357.2 1360.6 606.6" enable-background="new 0 357.2 1360.6 606.6" xml:space="preserve">
<ellipse opacity="0.1" fill="#231F20" cx="68.1" cy="922.8" rx="57.4" ry="11"/>
<ellipse opacity="0.1" fill="#231F20" cx="304.9" cy="899" rx="57.4" ry="11"/>
<ellipse opacity="0.1" fill="#231F20" cx="1286.1" cy="883" rx="57.4" ry="11"/>
<ellipse opacity="0.1" fill="#231F20" cx="1081.6" cy="883" rx="57.4" ry="11"/>
<path fill="#FFFFFF" d="M1223.5,520.5c0,0-6.4-3.9-8.7-5.5c-4.6-3-13-8.7-17.1-11.4c-3.2-2.3-9.4-6.9-13-8.7
	c-3-1.6-9.1-4.6-12.3-5.9c-3-1.6-8.7-4.6-12.1-5.9c-1.4-0.7-4.6-1.4-5.9-1.6c-0.9-0.2-2.5-0.2-3.7,0c-1.4,0.2-3.9,1.4-4.8,1.6
	c-2.5,0.9-8.2,3-10.7,4.1c-3.9,1.6-10.7,4.6-14.2,6.9c-4.6,2.5-8.2,6.9-12.6,9.1c-2.3,1.4-11.4,3-13.9,3.9
	c-2.3,0.7-17.1-0.2-19.2-0.7c-2.1-0.2-6.4-0.9-8.5-1.4c-3.9-0.7-13.7,2.5-13.7,2.5l-0.2-0.2c-0.2-3,1.6-4.6,3-6.9
	c3.2-7.1-1.6-16.2-5.9-24.9c-0.2-0.2-0.2-0.7-0.2-0.9c0.2,0.2,0.2,0.7,0.2,0.9c0.9,1.4,2.5,0.7,3,2.5c1.4,2.3,0,3.9,2.3,6.9
	c0.7,0.2,0.2-2.5,1.4-2.1c1.6,3.7,0.9,7.8,4.1,10.7c0.7,0.7,2.3,0.7,3.7,1.4c3.7,1.4,6.4,3.9,9.8,6.9c0.9,0.9,3.7,1.4,4.8,1.4
	c-3.7-2.5-6.9-5.9-9.8-10.1c1.6-0.2,3.7-0.2,4.8,1.4c1.6,2.3,2.5,5.9,5.5,6.4c1.6-1.6-0.7-4.6-2.1-6.9c4.6,3,9.1,6.4,15.3,5.3
	c0.7,0.7,1.6,0.7,2.5,1.4c0.9,0.7,1.4,2.3,2.3,3c0.7,0.7,3.7,1.4,4.1,0.7c0.9-1.4-0.2-2.3-0.9-3.7c-0.7-1.4,0-2.3-0.2-3.2
	c3.7,0.2,7.1,0.7,11.4-0.7c-5.5-0.7-10.1-0.9-13.7-6.4c-1.4-1.6-2.1-3.9-3-5.5s-2.1-3.9-3.2-5.5c-0.9-0.9-4.6-1.6-6.9-2.1
	c-1.6,0-3.2,0.7-4.8,0.2c-2.1,0-4.6-0.7-6.4-2.1c-5.3-2.5-10.3-7.8-15.5-11c-1.6-0.9-4.1-2.3-5.9-2.5c-3.9-0.9-8.7,0.7-13,2.1
	c-6.4-3.7-13.9-4.6-22.4-1.4c-0.9,0.7-2.3,1.4-3,1.6v0.2c-4.8,3.7-10.1,8.2-14.6,12.1c-3,2.5-6.4,9.1-6.4,13c0,2.3,0.7,4.1,0.7,6.9
	c0,2.1-0.2,4.8,0.2,6.4c1.4,3,4.1,5.5,5.3,9.1c0.2,1.4,0.2,3.7,0,5.5c-0.2,2.1-0.7,3.7,0.2,4.8c1.4,1.6,3.9,0.2,5.5,0.7
	c0,0,0.2,0.7,0.7,1.4c0.7,1.4,0.7,2.5,2.1,3.9c0.2,0.2,1.6,0.2,1.6,0.2s-0.7,2.1,0.2,2.3c2.5,1.6,3,3.7,3.9,4.8l-0.2,0.7l-3.2,7.1
	c0,0-3.7,5.9-4.6,7.8c-1.4,2.3-3,7.5-4.1,9.8c-1.6,3-5.9,8.5-7.5,11.4c-0.7,1.6-2.1,4.6-2.3,6.4c-0.7,1.6-1.6,4.8-2.1,6.4
	c-0.7,2.1-2.5,7.8-2.5,7.8s-4.6-1.4-5.9-2.1c-2.5-1.6-7.1-6.2-9.4-8.2c-2.3-2.3-8.5-8.5-8.5-8.5s-1.4-4.6-2.1-5.9
	c-0.2-0.7-2.1-2.5-2.1-2.5l-0.7-3.7c0,0-1.6-3.7-2.3-4.6c-0.7-0.7-2.3-0.9-2.5-1.4c-0.7-0.2-2.1-0.2-2.3,0c-0.2,0.2-1.4,1.4-1.4,1.4
	l-13.7,2.5c0,0-1.6-0.2-2.1,0c-0.2,0.2-1.4,0.9-1.6,1.6c-0.2,0.7-0.2,2.3,0,3s1.4,1.4,1.6,1.6c0.2,0.2,2.1,0.7,2.1,0.7
	s-1.6,1.4-2.1,2.1c-0.2,0.7-0.7,2.3-0.7,3c0.2,0.9,2.5,2.5,2.5,2.5s-0.2,2.1,0,2.5c0.2,0.5,1.6,1.6,1.6,1.6s0.7,2.1,1.4,2.3
	c0.7,0.7,2.3,1.4,3,1.6c1.6,0.2,6.9,0,6.9,0s2.5,0.2,3.2,0.9c1.4,0.7,3.2,3,3.9,3.9c2.5,3,6.4,10.1,8.5,13.7c1.6,3,4.8,8.7,7.1,11.4
	c2.3,3,7.5,8.7,10.7,10.7c1.6,1.4,5.5,2.5,7.5,3c0.9,0.2,3.2,0.2,4.1,0c0.7-0.2,2.5-0.9,3-1.4c1.4-0.7,3.2-3,4.1-4.1
	c2.1-2.5,4.6-8.7,5.9-11.4c2.5-5.5,10.1-16,13-21c1.6-3.7,3.2-11.4,5.3-14.9c1.6-2.5,6.4-9.1,6.4-9.1s3,5.9,4.1,7.8
	c3,4.1,9.8,12.1,13.3,15.3c4.1,3.9,13.3,10.3,18.3,13c3,1.6,9.8,3.7,12.6,5.5c1.4,0.7,5.3,3.7,5.3,3.7l6.9,3.9l4.6,2.5
	c0,0,0.7,5.3,1.6,6.9c0.9,2.5,4.1,6.9,5.9,9.4c0.7,0.7,2.3,3.2,2.3,3.2s-11.4,3.9-15.3,5.5c-4.6,1.6-24.7,0.7-43.4,13.3
	c-3.9,2.5-23.8,20.3-27.2,22.6c-1.6,0.9-4.8,3.2-6.2,4.6c-1.4,1.4-3.9,3.7-4.8,4.8c-0.7,1.4-2.3,3.9-2.3,5.3
	c-0.2,1.6,0.7,4.8,0.9,6.9c0.2,1.6,1.6,4.1,2.1,5.9c1.4,3.2,3.7,9.8,5.5,13c1.4,2.3,4.1,6.4,5.5,8.7c3,5.9,7.1,18.5,9.8,24.7
	c1.6,4.6,5.5,13,7.1,17.1c2.1,3.9,6.4,11.4,8.2,15.5c1.4,3,3.2,9.4,3.9,12.6c0.2,1.6,1.4,6.9,1.4,6.9v8.7l-0.9,3c0,0-0.9,3-1.4,3.9
	c-0.2,0.7-0.9,2.5-1.6,3.2c-2.1,2.5-6.9,7.5-9.8,9.8c-1.6,1.4-5.9,3.2-7.8,3.9c-1.6,0.7-5.5,0.9-7.1,0.9c-1.4,0-3.7-0.2-4.6,0
	c-1.4,0.2-3.9,0.9-4.8,2.1c-0.7,0.7-0.9,2.3-0.9,3c0,0.9,0.7,3,1.4,3.9c0.2,0.7,1.6,2.3,2.5,2.5c3,2.1,10.1,3.9,13.9,4.6
	c1.6,0.2,4.8,0.2,6.9,0c2.3-0.2,6.9-1.4,9.4-2.1c3.7-0.9,10.1-3.2,13.7-3.9c2.5-0.7,7.8-0.7,10.3-0.9c2.3,0,6.4,0.2,8.2,0
	c1.6-0.2,4.6-2.1,5.9-2.5c0.9-0.7,2.5-2.3,3.2-3.2c0.7-2.1,0.2-6.4,0-8.7c-0.2-2.3-1.6-6.4-2.5-8.7c-0.7-1.6-2.5-5.9-2.5-5.9l-3-0.7
	l-2.5-5.3c0,0-4.6-17.1-5.9-22.6c-1.6-6.9-2.3-20.8-3.7-27.7c-0.7-5.5-1.4-16.2-2.3-21.7c-0.9-5.5-6.2-16.5-8.2-22.2
	c-0.9-2.3-4.6-8.2-4.6-8.2l17.6-7.5c0,0,33.1-3.9,39.5-4.6c10.3-0.9,22.6-8.7,22.6-8.7s6.4,18.7,9.4,23.8
	c3.2,5.3,10.3,15.3,13.9,20.1c3.7,4.6,12.3,9.8,15.5,14.2c1.6,2.3,5.9,9.1,5.9,9.1s3,4.8,3.9,6.9c1.6,2.3,4.6,6.4,6.4,8.2
	c2.3,2.1,7.1,4.6,10.1,5.9c3.9,2.3,11.4,5.5,15.3,7.5c3,1.4,8.7,3.9,11.4,5.9c4.1,2.3,12.1,7.8,16.2,10.1c5.3,3,16,7.8,21,10.7
	c5.5,3,20.8,13,20.8,13l9.8,7.8l5.9,7.1l-0.9,2.5c0,0-0.2,3.7,0,4.6c0.2,1.6,2.1,4.6,2.3,5.9c0.7,2.3-5.5,17.1-6.9,17.6
	c-1.4,0.7-3.9,1.4-4.8,2.1c-0.7,0.7-1.6,3-1.6,3.9c0,0.7,0.2,2.3,0.9,3c1.4,1.4,4.6,1.6,6.4,1.6c2.3,0.2,6.4,0.7,8.7,0.7
	c1.6,0,5.3-0.7,6.9-1.4c1.4-0.2,3.9-1.4,4.8-2.3c1.6-1.4,3.7-5.5,4.6-7.1c1.4-3,1.6-9.1,2.5-12.1c0.7-2.3,2.5-6.4,3.9-8.7
	c1.6-3,6.2-8.7,7.8-11.7c0.7-1.4,2.1-3.9,2.1-5.5s-1.4-4.8-2.1-6.4c-1.4-2.1-4.6-5.3-6.4-6.4c-1.6-1.4-4.8-2.5-6.4-3.2
	c-0.9-0.2-3.9-0.9-3.9-0.9h-2.5c0,0-10.3-6.4-13.7-8.7c-4.1-3-12.3-9.1-16.5-12.3c-3.7-2.5-10.3-8.2-13.3-11
	c-4.6-4.6-10.1-12.3-18.3-17.8c-9.1-6.2-26.3-10.7-26.3-10.7l-5.5-5.5c0,0-9.8-12.3-12.1-17.1c-2.1-3.7-3.9-11.7-5.5-15.5
	c-1.4-4.1-3-13-4.6-17.1c-1.4-3.7-5.3-10.7-6.9-13.9c-1.6-3-6.9-12.3-6.9-12.3s3-9.8,3.7-13.3c0.7-3,2.1-9.4,2.1-12.6
	c0-3.2-0.9-9.8-2.3-12.6c-0.9-2.5-4.1-7.5-5.9-9.8c-1.6-2.3-5.9-5.5-7.5-7.5c-2.3-2.5-5.9-8.7-8.2-11.4c-2.5-3.7-8.7-9.8-12.1-13
	c-2.3-2.3-6.4-6.9-8.2-9.4c-2.5-3.7-10.3-14.2-10.3-14.2s-3.2-14.2-5.5-18.5c-2.5-4.6-13.3-15.5-13.3-15.5s8.2-3.9,10.7-5.5
	c2.5-1.6,7.8-4.8,10.1-6.9c3.2-2.5,12.1-12.1,12.1-12.1l8.7,3.9c0,0,12.1,4.1,16,5.5c3,0.7,9.1,2.1,12.1,3
	c3.7,1.4,10.3,4.6,13.9,6.2c4.8,2.3,19.4,10.1,19.4,10.1c0.2,0,4.6,2.3,4.6,2.3l0.9,2.5l2.3,5.3l3,5.9c0,0,1.4,2.1,1.6,2.5
	c0.2,0.7,1.4,2.1,1.4,2.5c0.2,0.7,0.9,2.5,1.4,3.7c0.2,0.7,0,2.3,0,3s0,2.1,0.2,2.3s0.9,0,1.4,0s1.4-0.2,1.6-0.7
	c0.2-0.2,1.4-0.9,1.6-1.6s0.7-2.1,0.7-2.5c0.2-0.9,0.2-3,0-3.9s-1.6-3.7-1.6-3.7l-0.2-2.1h3.9l3.2,1.4c0,0,3.7,1.6,4.6,2.5
	c1.4,0.7,3,2.3,4.1,3c1.1,0.7,3.7,1.6,4.6,2.3c1.4,0.7,3.2,1.6,4.6,1.6c0.7,0.2,2.1,0.2,2.5,0c0.2-0.2,1.4-0.7,1.4-1.4
	c0.2-0.7-0.2-2.1-0.7-2.3c-0.7-0.7-2.1-1.4-2.5-1.6c-0.7-0.2-4.8-3.2-5.5-3.7c-0.9-0.7-3-1.6-3.9-2.5c-0.7-0.7-2.3-2.3-2.3-2.3v-1.4
	c0,0,2.5,0.9,3.7,1.4c1.4,0.7,3.7,1.6,4.8,2.3c1.4,0.7,6.4,3.7,6.9,3.9c0.7,0.2,2.3,0.9,3,1.4c0.7,0,1.6,0.2,2.3,0
	c0.2-0.2,0.7-0.7,0.9-0.9c0.2-0.2,0.2-1.4,0-1.6s-0.7-1.4-1.4-1.4c-0.2-0.2-1.6-1.6-1.6-1.6s0.2-0.7,0.2-1.4c-0.2-1.6-2.5-3-3.2-3.7
	c-0.2-0.2-1.4-1.4-1.6-1.6s-1.4-1.4-1.6-1.6c-0.7-0.7-3-2.3-3-2.3l-3.7-2.5l-2.3-1.6c0,0,3.2,0.2,4.6,0.7c0.7,0.2,3,0.7,3,0.7
	s2.3,1.6,3,2.1c0.7,0.2,1.6,0.2,2.3,0c0.2-0.2,0.7-0.7,0.9-0.9c0.2-0.2,0.2-0.9,0-1.4c-0.2-0.7-1.6-1.6-2.3-2.3s-2.3-1.6-3.2-2.3
	c-0.9-0.2-3-1.4-3.9-1.6c-1.4-0.2-3.2-0.9-4.6-1.4c-0.9-0.2-2.5-0.9-3.7-1.4c-1.4-0.7-3.7-1.6-4.8-2.3c-1.4-0.7-4.6-2.3-5.9-2.5
	c-2.1-0.7-5.3-1.4-7.1-2.1C1231.3,522.8,1223.5,520.5,1223.5,520.5z"/>
<path fill="#FFFFFF" d="M177.8,578.6c4.1,2.3,10.7-1.4,14.9-3.4c1.1-0.7,10.7-4.1,11.9-4.3c1.4-0.7,4.3-0.9,5.7-1.1
	c2.3-0.2,7.1-0.7,9.6-0.7c2.5-0.2,7.8-0.2,10.3-0.7c0.7-0.2,2.1-0.7,2.5-0.7c2.5-0.9,11-4.3,11-4.3l16.2-6.4l7.3-3.4
	c0,0,3.2-3.4,4.1-4.6c2.1-2.3,5.3-12.6,11.9-19c11.9-11.9,17.8-17.8,20.3-23.1c0.7-1.1,1.4-6.4,1.4-6.4s0.7-3.2,0.7-4.1
	c-0.2-1.4-1.1-4.1-1.4-5.3c-0.2-0.9-0.9-2.3-1.1-3.2c-0.2-1.1-0.2-3.2,0-4.3c0-0.7,0.7-2.3,0.7-2.3s-0.2-3.9-0.2-5.3
	c-0.2-1.1-0.7-3-0.7-3.9c0-0.7-0.2-1.8,0-2.3c0.2-0.2,0.7-0.9,1.1-1.1c0.2-0.2,0.7,0,1.1,0c0.7,0.2,1.4,0.7,1.8,0.9
	c0.7,0.7,1.4,2.1,2.1,2.5c0.2,0.9,0.7,3.9,0.7,5c0.2,1.1,0.9,3.4,0.9,3.4s0.7,1.1,0.9,1.1c0.2,0.2,0.9,0.2,1.1,0.2
	c0.7-0.2,2.1-2.1,2.1-2.1l1.1-2.3l1.4-3l0.7-2.3l0.9-4.1c0,0,0.2-3.4,0.2-4.6c0.2-1.1,0.2-4.3,0.7-5.5c0.2-0.9,0.9-2.5,1.4-3.4
	c0.2-0.2,0.7-1.1,0.9-1.4c0.7-0.2,1.4-0.7,2.3-0.2c0.2,0.2,1.1,0.7,1.1,1.1c0.2,0.2,0,1.1,0,1.4c0,0.9-0.2,2.3-0.7,3.2
	c-0.2,0.7-0.2,3.2-0.2,3.9c-0.2,1.1-0.7,4.1-0.7,4.1v7.3l0.7,0.7l2.1-3.4c0,0,1.4-2.5,2.1-3.9c0.7-1.1,2.1-5.5,2.3-6.4
	c0.2-0.9,1.1-2.3,1.8-3.2c0.2-0.7,1.1-1.1,1.4-1.4c0.7-0.2,1.1-0.9,1.8-0.9c0.2,0,1.1,0,1.4,0.7c0.2,0.2,0.2,2.1,0.2,2.3
	c-0.2,0.7-2.5,7.8-3.2,8.7c-0.2,0.9-1.1,3-1.4,3.9s-1.1,2.5-1.1,3.4c-0.2,0.9-1.1,3.2-1.1,3.2l0.7,0.7c0,0,5-5.3,8.7-8.9
	c1.1-1.1,3.4-3.2,4.3-4.1c0.7-0.7,1.4-0.2,2.1,0c0.2,0.2,0.9,0.7,0.9,0.9c0.2,0.2,0.2,1.1,0,1.8c-0.2,0.9-1.4,2.3-2.1,3
	c-0.7,0.7-3.4,3.2-4.1,4.1c-0.7,0.9-2.1,2.5-2.5,3.4c-1.1,1.1-4.6,4.6-4.6,4.6l0.9,0.9c0,0,2.1,0,2.5,0c1.1-0.2,3.2-0.7,4.3-0.9
	c1.1-0.2,3.4-1.8,5-2.3c0.7-0.2,2.1-0.7,2.5-0.7c0.2,0,1.1-0.2,1.4,0c0.2,0.2,0.7,0.7,0.7,0.7c0.2,0.2,0.2,1.1,0,1.4
	c-0.2,0.7-1.1,1.4-1.4,1.4c-1.1,0.7-3.2,1.4-4.3,2.1c-1.1,0.7-3.4,1.4-4.6,2.1c-1.1,0.7-5.3,2.3-5.3,2.3l-3.9,1.8l-1.1,4.1l-2.3,4.3
	l-3.2,3.2l-3.9,4.3l-4.1,8.2c0,0-6.4,16.9-9.6,22.4c-4.1,6.6-18.5,26.5-18.5,26.5l-3.4,6.2l-2.3,2.3l-2.5,1.4l-4.3,1.4l-5.7,2.5
	l-13,6.2l-15.8,6.2l-13,4.1l-7.8,1.4l-4.3,0.9l-2.3,2.3l-2.5,6.4l-2.3,7.3c0,0-3.2,9.8-4.3,13.5c-0.7,2.1-2.3,5.7-3,7.8
	c-0.2,1.4-0.7,4.6-1.1,6.2c-1.4,7.3-5.7,22.2-6.6,29.7c-0.2,1.8-0.2,5.3,0,7.3c0.2,1.8,0.9,5.3,1.1,7.1c0.7,2.1,2.1,6.2,2.5,8.2
	c0.7,1.8,2.3,5.3,3.4,7.1c0.7,0.7,8.7,12.8,9.4,13.7s2.3,2.3,3,3c0.7,0.7,1.8,1.4,2.1,2.1c0.7,1.1,1.4,4.3,1.4,4.3s5.5,3.2,7.3,4.6
	c2.1,1.4,5.7,4.3,7.5,5.7c1.4,1.1,4.3,3.4,5.7,5c1.4,1.4,4.3,5.3,5.7,7.1c1.8,2.1,5,6.2,6.4,8.2c1.4,1.8,5.3,7.3,5.3,7.3l3.4,3
	c0,0,5.3,5,7.1,7.1c1.4,1.4,4.1,5,5,7.1c1.1,2.1,3.2,6.4,4.1,8.7c0.9,2.5,2.3,7.8,3,10.3c0.2,1.4,1.4,6.2,1.4,6.2s1.8,1.1,2.3,1.4
	c0.2,0.2,1.1,1.1,1.4,1.4c0.7,0.2,2.1,0.7,2.5,1.1c0.9,0.2,2.3,1.4,3.2,2.1c0.9,0.7,2.5,2.1,3.4,2.5c1.4,0.9,4.3,2.5,5.7,3.4
	c1.4,1.1,5,3.2,6.4,4.3c1.4,0.9,4.3,2.3,5.7,3.2c1.4,0.7,4.1,1.8,5.5,2.5c1.4,1.1,4.1,3.4,5,5c1.1,1.4,2.3,4.3,2.5,6.2
	c0.2,1.1,0.7,3.4,0.9,4.6c0.2,1.4,0.2,4.3,0,5.7c-0.2,1.1-0.9,3.2-1.4,4.1c-0.7,0.9-2.1,2.1-2.5,2.5c-0.7,0.7-2.1,1.1-2.5,1.4
	c-0.9,0.2-2.5,0.2-3.4,0c-1.4-0.2-3.9-1.1-5-1.4c-1.4-0.7-4.3-2.3-5.7-3.2c-1.4-1.1-5-3.4-6.2-5c-1.1-1.4-3.4-4.6-5-6.2
	c-1.4-1.4-5.3-4.3-7.3-5.5c-1.1-0.9-5-3.2-5-3.2s-2.5-0.7-3.4-1.1c-1.1-0.7-3.4-1.4-4.6-2.3c-1.4-1.1-3.4-3.4-4.6-4.6
	c-0.9-1.1-2.5-3.2-3.4-4.3c-0.2-0.7-0.9-2.3-0.9-3.2c-0.2-1.4,0-5.3,0-5.3s-5-3-6.6-3.9c-1.4-0.7-4.1-1.4-5.5-2.3s-4.3-3-5.3-4.3
	c-0.9-1.1-2.3-3.4-3-5c-0.9-1.4-2.1-4.3-3-5.7c-0.7-1.4-3.2-5.3-3.2-5.3s-3.4-1.1-4.3-1.8c-1.4-0.7-4.1-2.1-5.5-2.5
	s-4.1-2.1-5.3-2.5c-1.1-0.7-4.1-3.2-4.1-3.2h-3.2c0,0-5.5,0.2-7.3,0.2c-2.1,0-6.4-0.2-8.7-0.7c-1.4-0.2-4.6-1.1-6.2-1.8
	c-6.2-2.3-23.5-10.3-23.5-10.3h-3.2c0,0-6.2,5-8.2,6.4c-2.3,1.4-7.5,4.3-10.3,5.3c-2.5,1.1-7.8,2.1-10.7,2.5c-1.8,0.2-5,1.1-6.6,1.1
	c-2.1,0.2-8.5,0.7-8.5,0.7l-5.3,1.1c0,0-0.7,4.1-0.7,5.3c-0.7,5.3-1.1,15.3-2.3,20.6c-0.7,3.2-3,8.9-4.1,12.1
	c-1.1,3.2-4.1,12.8-4.1,12.8l-1.1,5c0,0,1.1,1.1,1.4,1.4c0.7,0.9,1.8,2.3,2.1,3.4c0.2,1.1,0.7,3.9,0.7,5.3c0,1.4-0.7,4.3-0.9,5.7
	c-0.2,1.4-0.7,4.1-1.1,5.3c-0.2,0.9-2.3,3.2-2.3,3.2l-6.4,6.4c0,0-1.8,4.1-2.3,5.5c-0.7,1.4-1.8,4.3-2.3,5.7
	c-0.7,1.4-1.4,4.1-2.1,5.3c-0.7,1.8-2.1,5.3-2.5,7.1c-0.9,2.1-2.5,5.7-3.9,7.5c-0.9,1.4-3,4.1-4.1,5.3c-0.9,0.7-2.5,2.1-3.9,2.3
	c-0.9,0.2-3,0.7-4.1,0.9c-0.9,0.2-2.3,0.2-3.2,0c-1.1-0.2-3.9-1.4-5-2.1c-1.1-0.9-2.5-3-3.2-4.1c-0.7-1.1-1.4-3.4-1.4-5
	c-0.2-1.1,0-3.9,0-5c0.2-1.4,0.2-5,0.9-6.4c0.2-1.1,1.8-3.2,2.3-4.3c0.9-1.4,2.5-4.3,3.4-5.7c1.1-1.4,4.3-4.1,5.5-5.5
	c1.4-2.1,5.3-8.7,5.3-8.7l1.4-3l1.4-4.1l2.1-3.9l2.3-2.3l0.9-2.5V838l-1.1-8.7c0,0-1.4-7.8-1.8-10.5c-0.7-4.1-1.4-12.6-1.8-16.7
	c-0.2-4.3-0.7-13.5-0.9-17.8c0-2.1-0.2-5.5,0-7.3c0.2-1.4,0.2-5,0.7-6.4c0.5-1.4,1.1-4.3,1.8-5.7c0.7-1.1,2.3-4.1,2.3-4.1l1.1-3.2
	c0,0,0.7-3.4,1.1-5c0.9-2.3,3.4-6.6,5-8.7c1.4-2.3,4.3-7.1,6.2-8.9c1.4-1.8,4.3-4.6,6.2-6.2c1.8-1.4,7.3-6.2,7.3-6.2
	s-0.7-2.5-0.7-3.9c0-0.7,0.2-2.3,0.7-2.5c0.2-0.7,1.4-1.4,2.1-2.1c0.7-0.7,0.7-1.8,0.7-2.3s-0.2-2.1,0-2.5c0.2-2.5,2.3-8.2,3-10.7
	c0.7-2.3,2.5-9.6,2.5-9.6l1.1-11l-6.2-39.8l-0.7-7.1l-0.2-23.3l-1.8-6.4l-1.1-8.2l-0.7-6.4l-3-4.1l-5.7-5.7l-5.3-5.3l-8.2-9.4
	l-8.2-9.6c0,0-13.9-11.7-19.4-22.4c-1.4-2.5-16.2-31.3-16.2-31.3l-4.1-8.2l-3.9-4.3l-3.2-3.2l-2.3-4.3l-1.1-4.1l-3.4-2.1
	c0,0-3.9-1.8-5.3-2.3c-1.1-0.7-3.4-1.4-4.6-2.1c-1.1-0.7-3.2-1.4-4.3-2.1c-0.7-0.2-1.4-1.1-1.8-1.4c-0.5-0.2-0.2-1.1,0-1.4
	c0.2-0.2,0.7-0.7,0.7-0.7c0.2-0.2,1.1,0,1.4,0c0.7,0.2,2.1,0.7,2.5,0.7c1.1,0.7,3.4,1.8,5,2.3c1.1,0.2,3.2,0.7,4.3,0.9
	c0.7,0,2.5,0,2.5,0l0.9-0.9c0,0-3.4-3.4-4.6-4.6c-0.7-0.9-2.1-2.5-2.5-3.4c-0.7-0.7-3.4-3.2-4.1-4.1c-0.7-0.9-1.8-2.1-2.1-3
	c-0.2-0.2-0.2-1.4,0-1.8c0.2-0.2,0.7-0.9,0.9-0.9c0.7-0.2,1.1-0.7,2.1,0c0.7,0.7,3.2,3,4.3,4.1c3.9,3.9,8.7,8.9,8.7,8.9l0.7-0.7
	c0,0-1.1-2.3-1.1-3.2c-0.2-0.9-0.9-2.5-1.1-3.4c-0.2-0.9-1.1-3-1.4-3.9c-0.7-1.1-3.2-8.2-3.2-8.7c-0.2-0.7-0.2-2.1,0.2-2.3
	c0.7-0.7,1.1-0.7,1.4-0.7c0.7,0,1.1,0.7,1.8,0.9c0.7,0.2,1.1,1.1,1.4,1.4c0.7,0.7,1.4,2.3,1.8,3.2c0.7,1.1,2.1,5.5,2.3,6.4
	c0.7,1.1,2.1,3.9,2.1,3.9l2.1,3.4l0.7-0.7v-7.3c0,0-0.7-3-0.7-4.1c-0.2-0.7-0.2-3.2-0.2-3.9c-0.2-0.9-0.7-2.3-0.7-3.2
	c0-0.2-0.2-1.1,0-1.4c0.2-0.2,0.7-1.1,1.1-1.1c1.1-0.2,2.1,0,2.3,0.2c0.2,0.2,0.7,0.9,0.9,1.4c0.7,0.9,1.1,2.5,1.4,3.4
	c0.2,1.1,0.7,4.3,0.7,5.5c0.2,1.1,0.2,4.6,0.2,4.6l0.9,4.1l0.7,2.3l1.4,3l1.1,2.3c0,0,1.4,2.1,2.1,2.1c0.2,0.2,0.9,0,1.1-0.2
	c0.2-0.2,0.9-1.1,0.9-1.1s0.9-2.3,0.9-3.4c0-1.1,0.2-3.9,0.7-5c0.2-0.9,1.1-2.3,2.1-2.5c0.2-0.2,1.1-0.7,1.8-0.9
	c0.2,0,0.9-0.2,1.1,0c0.2,0.2,0.9,0.7,1.1,1.1c0.2,0.7,0,1.8,0,2.3c0,1.1-0.7,3-0.7,3.9c-0.2,1.1-0.2,5.3-0.2,5.3s0.7,1.8,0.7,2.3
	c0.2,1.1,0.2,3.2,0,4.3c-0.2,0.9-0.9,2.3-1.1,3.2c-0.2,1.4-1.4,3.9-1.4,5.3c-0.2,1.1,0.7,4.1,0.7,4.1l2.5,5.3c0,0,9.6,14.6,13.5,19
	c2.1,2.3,8.7,8.5,8.7,8.5s3.4,3.4,4.6,5c6.4,7.1,15.1,23.1,15.1,23.1l6.4,6.4l5,3.4l5,3.2c0,0,5,3.2,6.4,4.3s4.1,3,5.3,4.1
	c1.1,0.9,3.2,2.5,4.1,4.1c0.9,1.4,1.8,4.1,2.5,5c0.7,0.9,2.1,2.3,3,3c0.7,0.2,2.3,0.7,3,0.7c2.1,0.2,7.3-0.7,7.3-0.7l0.2-0.9
	l-1.1-6.9c0,0-1.8-1.4-2.3-2.3c-0.7-0.7-1.4-2.1-2.1-3c-0.2-0.9-1.1-3.4-1.1-3.4s-1.1,0-1.4,0c-0.2,0-1.1-0.2-1.4-0.7
	c-0.2-0.2-1.1-0.9-1.1-1.1c-0.2-0.7-0.7-2.1-0.7-2.5c-0.2-0.9-0.7-2.3-0.9-3.2c-0.2-0.7-0.7-1.4-0.7-1.8c-0.2-0.7-0.9-1.4-1.1-2.3
	c-0.2-0.7-1.1-1.8-0.9-2.3c0-0.2,0.7-0.7,0.9-0.9c0.2-0.2,1.1-0.7,1.1-0.7s-0.7-1.4-1.1-1.8c-0.7-0.7-1.8-1.4-2.1-2.1
	c-0.2-0.7-0.9-2.3-0.9-3.2c0-0.7,0.7-1.8,0.7-2.3c0.2-0.7,0.7-2.3,0.7-3.2c0-1.1-0.7-3-0.7-4.1s0-3.2,0-4.3s0.2-3.4,0.7-5
	c0.2-1.4,1.8-3.4,2.5-4.3c0.7-0.7,2.5-1.4,3.4-2.1c0.7-0.2,1.8-0.2,2.3-0.7c1.1-0.7,3.2-2.1,4.1-2.5c1.1-0.7,3-1.4,4.1-1.8
	c0.7-0.2,2.3,0.2,3.2,0c1.1-0.2,2.5-2.1,3.4-2.5c0.7-0.7,2.1-2.5,2.3-3.4c0.2-0.9,0.7-3.4,0.7-3.4s0.7,2.1,0.7,3c0,0.7,0,2.5,0,2.5
	s0.7-1.8,1.1-2.3c0.2-0.7,0.9-2.1,1.1-2.3c0.2-0.2,0.9-0.9,0.9-0.9s0,1.1,0,1.4c0,0.7,0,1.4,0,2.3c0,0.7-0.7,2.3-0.7,2.3
	s1.4-1.4,2.1-2.1c0.7-0.7,1.8-2.1,1.8-2.1s-0.2,1.8,0,2.3c0,0.2,0.7,1.8,0.7,1.8s0.7-1.1,0.7-1.4c0.2-0.2,0.9-1.1,1.1-1.1
	c0.2,0,2.3-1.4,2.3-1.4s-1.1,2.1-1.1,2.3s0,1.1,0,1.8c0,0.2,0.2,1.1,0.2,1.1s1.1,0,1.4,0c0.7,0,2.5-2.1,2.5-2.1s0.2,2.5,0.2,3.2
	c0,0.2,0,1.4,0,1.4s1.8,0.2,2.3,0.2c0.2,0,1.8,0,1.8,0s-0.7,1.4-0.7,2.1c-0.2,1.1-0.2,3.2,0,4.1c0.2,0.9,0.7,2.3,1.1,3.2
	c0.2,1.1,1.1,3,1.4,3.9c0.2,0.9,0.9,2.3,1.1,3.2c0.2,1.1,0.7,3.2,0.9,4.3c0.2,1.1,0.2,3.9,0,5c0,0.9-0.7,3.4-0.7,3.4s1.1,0,1.4,0.2
	s0.9,1.4,1.1,2.1s0,1.8,0,2.3c0,0.9-0.7,2.3-0.7,3.2s0,2.1,0,2.5c0,0.5,0,1.4,0,2.1s0.2,2.1,0,2.5c-0.2,0.2-0.7,1.1-0.7,1.4
	c-0.2,0.2-0.7,0.7-0.7,0.7c-0.2,0.2-1.1,0.7-1.1,0.7s0,1.4,0,2.1c0,1.1,0,3.9-0.2,5s-1.4,3.4-2.1,4.3c-0.7,0.7-2.3,2.3-2.3,2.3
	s0,2.3,0,3c0,0.7,0.2,1.8,0.7,2.3c0,0.2,0.2,1.1,0.2,1.1C177.4,577.9,177.4,578.4,177.8,578.6z"/>
<ellipse opacity="0.1" fill="#231F20" cx="489.4" cy="899.2" rx="57.4" ry="11"/>
<ellipse opacity="0.1" fill="#231F20" cx="898.5" cy="910.2" rx="57.4" ry="11"/>
<path fill="#FFFFFF" d="M714,508.7c-6.2-0.2-27.9,3.4-34.1,5.3c-2.3,0.7-13,3.4-13,3.4s-6.6,2.3-7.8,3.4c0,0-0.2-0.9-0.7-1.1
	c-0.9-1.4-0.7-7.8-0.7-7.8s3-1.4,3.2-2.1c1.4-2.5,0.2-5.5,0-7.3c-0.2-1.1,0.7-3.4,0.2-4.3c-0.2-0.7-1.1-1.8-1.1-1.8s0.7-2.1,0.7-2.5
	c0-1.1-1.1-4.3-1.1-4.3s3-3.2,1.1-5c-2.3-2.3-6.6-6.6-6.6-7.8s0-3.4-0.7-4.3c-1.1-3.2-3.4-5.3-3.4-5.3s1.4-3.9,1.4-5
	c-0.2-1.8-2.1-4.6-3.2-5.7c-1.1-1.1-4.1-2.1-5.5-2.3c-1.4-0.2-4.6,1.1-6.2,1.1c-5.7,0-21.3,7.3-28.8,14.9c-1.4,1.4-4.1,5.5-5,7.5
	c-0.7,1.8-1.4,5.5-1.4,7.3c-0.2,1.8-0.2,5.3,0,7.1c0.2,2.1,0.7,6.2,1.4,8.2c0.7,1.8,2.3,5,3.4,6.4s3.4,3.4,5,5
	c1.1,1.1,2.5,3.2,3.9,3.9c0.9,0.7,3.9,1.4,3.9,1.4s1.4,6.4,1.4,8.7c0,2.1-1.1,8.5-1.1,8.5l-0.2,1.4c-3.2,2.1-8.5,3-15.3,9.8
	c-1.8,1.8-13.7,8.9-15.1,10.7c-1.4,1.4-4.3,5-5.7,6.4c-1.4,1.4-5,3.2-6.4,4.3c-2.1,1.4-20.1,13.7-24.2,17.8l-5,5
	c-0.9,0.9-2.5,3-3.4,3.4c-0.9,0.5-4.1,0.9-4.1,0.9s-7.3-4.3-9.8-6.2c-2.5-2.1-8.2-5.7-10.7-8.2c-1.8-1.4-5-5-6.4-6.4
	c-0.9-0.9-2.3-2.3-3.2-3.2c-1.1-1.1-9.6-5.7-10.7-6.2l-0.2-0.7l4.6-4.6l2.1-3l141.7-146.1c0,0,5.5-5.7,5-6.6
	c-1.4-1.4-8.2,4.6-8.2,4.6L497.1,550.3l-3.9,2.3l-7.5,6.6c-0.7,0-3.2,0.2-3.9,1.1c-0.7,0.7-2.1,2.3-2.1,2.3s-2.3,0-3.2,1.1
	c-0.2,0.2-1.4,1.8-1.4,1.8s-1.8-0.2-3,1.1c-1.1,1.1-1.1,1.8-1.4,2.3c0,0-1.8,1.1-2.1,1.4c-0.2,0.2-0.7,0.9-0.7,1.4
	c-0.2,0.7-0.2,2.1-0.2,2.1l-0.7,0.9c0,0-1.1,1.1-1.4,1.8c-0.9,1.1-0.2,5-0.2,5L290.8,761.9c0,0-3.4,3.4-2.5,4.3
	c2.1,2.1,5.7-2.1,5.7-2.1l174.8-173l1.1-0.7l6.4-5.7c0,0,2.3,1.1,3.2,1.1c0.7,0,3-0.7,3-0.7s4.1-1.4,5.3-2.1
	c1.4-0.7,4.1-2.1,5.3-2.3s8.2,5.3,10.3,7.8c3.2,3.4,9.4,11.7,11.9,15.8c1.8,2.5,5,7.8,6.4,10.7c0.9,1.4,6.2,6.2,7.1,6.6
	c4.1,2.3,12.6-2.3,14.9-3c1.4-0.7,4.3-1.4,6.2-2.1c2.5-1.1,17.8-10.5,21-11c2.1-0.7,6.2-2.1,8.2-2.5c2.5-0.9,10.7-3.4,10.7-3.4
	l8.9-4.1l8.7,15.8c0,0,5,6.4,6.4,8.7c1.1,1.4,3.4,4.3,4.1,6.2c2.1,6.4-0.2,20.3,0,27c0.2,1.8,0.7,5.3,0.7,7.1c0,1.1-0.7,3.2-0.7,4.1
	c-0.7,2.1-2.3,5.5-2.5,7.3c-0.2,1.4,0,4.1,0,5.5c-0.2,2.3-0.7,7.3-1.1,9.8c-0.2,2.1-6.2,14.6-8.7,19.2c-2.3,4.6-10.7,17.8-10.7,17.8
	l1.1,2.5c0,0-3.9,12.8-5.5,16.9c-1.1,2.5-3.4,8.5-5.3,11c-2.1,3-9.8,9.8-9.8,9.8l-5,5c0,0-11,0.2-17.1,3.2
	c-8.2,4.1-17.1,11-20.1,13.5c-2.5,2.3-8.2,6.4-11,8.7c-2.3,2.1-7.1,6.4-9.6,8.2c-2.3,1.4-8.7,4.1-9.4,4.6c-2.3,1.4-8.7,3.9-8.7,3.9
	l-3.2,2.3c0,0-7.3,0-10.3,1.1c-0.7,0.2-8.7,6.6-10.5,8.2c-1.4,1.4-4.6,3.9-6.4,5c-2.1,1.1-6.4,1.8-8.5,2.5c-2.1,1.1-6.2,3.9-7.8,5.3
	c-1.4,1.1-3.9,3.4-5,5c-0.7,1.1-1.8,3.2-2.3,4.1c-0.7,1.4-1.1,4.1-1.1,5.5c-0.2,1.8-0.2,5.3,0,7.1c0.2,1.1,0.9,3,1.4,3.9
	c0.7,0.9,2.1,2.3,3,3c1.4,0.7,5,0.7,6.4,0.7c1.4,0,4.3-0.2,5.7-0.9c1.1-0.7,3.4-2.1,4.6-2.5c1.4-1.1,4.1-4.3,5.7-5.7
	c1.4-1.1,4.3-2.3,5.7-3.2c1.4-0.7,4.3-2.1,6.2-2.5c2.1-1.1,7.8-4.3,7.8-4.3l6.6-1.8c0,0,4.3-2.3,5.5-3.4c1.1-1.1,3.4-3.2,4.3-4.3
	c0.9-1.1,2.3-5.3,2.3-5.3l5.5-5.5l8.2-5.3c0,0,10.5-3.2,13.9-4.3c3.2-1.1,9.8-3.2,13-5c2.5-1.1,23.3-6.2,27.7-7.3
	c1.4-0.2,8.9-3.4,11.9-5.7c1.1-0.9,3.2-3.4,4.3-4.3c1.1-1.1,3.4-2.5,5-3.4c2.1-1.1,6.6-2.3,8.7-3.9c2.5-1.8,7.5-6.2,9.8-8.2
	c2.3-2.3,6.4-7.5,8.5-10.3c1.8-2.1,5-6.2,6.4-8.2c1.8-2.3,12.8-16.7,12.8-16.7l6.2,2.3c0,0,11.9-11.9,16.2-16.2
	c2.5-2.5,8.7-7.8,10.7-10.7c0.7-0.7,1.8-3.2,1.8-3.2s11,1.4,14.6,2.5c6.2,2.1,23.3,11.7,23.3,11.7l5.3-1.8l23.5,13
	c0,0,10.7,3.9,14.2,5.3c3,1.1,7.3,4.3,10.3,5.7c1.8,0.9,5.3,2.5,6.6,3.9c1.1,0.9,3,2.5,3.9,3.9c1.1,1.8,3,5.7,4.1,7.5
	c1.8,3.2,4.1,12.6,11.7,20.1c4.1,4.1,21,14.9,23.8,17.1c2.7,2.3,7.5,7.3,10.5,9.8c4.3,3.4,11.9,11.9,15.8,15.8
	c1.4,1.4,5.7,5.7,5.7,5.7l1.8,4.6c0,0,1.1,4.3,1.8,6.2c0.9,2.3,2.5,6.4,4.1,8.2c1.1,1.4,3.2,4.1,4.6,4.6c1.1,0.7,3.9,0.2,5,0
	c1.1-0.2,3.2-2.3,4.3-3c2.1-1.1,5.7-3.2,7.3-4.6c2.1-1.4,5.7-5.3,7.3-7.3c0.7-0.9,1.4-3,2.1-3.9c1.4-1.4,5-3.2,6.6-4.1
	c2.3-1.1,7.3-2.5,9.6-3.9c1.4-0.9,4.3-3,5.7-4.1c2.1-1.4,5.3-5,7.1-7.1c1.1-1.4,3.2-4.3,4.1-6.2c0.7-1.4,1.4-4.3,1.1-5.7
	c-0.2-0.9-1.8-2.3-2.5-2.5c-0.9-0.2-3-0.2-4.1,0c-2.3,0.2-6.4,1.1-8.7,1.8c-1.4,0.7-3.9,2.1-5.3,2.3c-2.5,0.9-8.2,2.3-10.7,2.5
	c-5.7,0.7-23.8,0-23.8,0s-3.2-2.3-4.6-2.5c-1.1-0.2-4.3,0-4.3,0l-3-3c0,0-5.3-6.2-6.6-8.2c-2.5-3.4-7.3-10.7-9.8-14.2
	c-3-4.1-6.2-10.7-9.6-14.6c-2.1-2.3-9.8-12.6-11.9-14.6c-2.1-2.1-9.4-10.3-10.7-12.8c-0.9-1.8-2.1-5.5-2.5-7.3
	c-0.7-1.4-5.7-10.3-11.7-12.8c-2.5-1.1-2.3-1.4-8.9-7.3c0,0-12.1-13.7-14.6-16.2c-1.4-2.1-5.3-5.3-7.1-7.1
	c-2.5-2.3-8.7-5.7-11.4-7.8c-1.4-1.1-13.7-6.6-16.2-8.2c-1.8-1.1-4.3-4.3-5.7-5.7c-1.8-1.8-5.3-5-7.1-7.1c-1.4-1.8-5-7.3-5-7.3
	l-2.5-2.5l1.8-6.2c0,0-7.1-12.8-7.8-17.8c-1.1-5-1.1-15.3-1.1-20.3c0-3.2,0.9-9.8,0.9-13c0-3.2-0.7-9.8-1.1-13
	c-0.7-3-3.2-8.7-3.4-11.7c-0.7-4.1-0.9-16.7-0.9-16.7l19-11.7l1.1-3.9c0.2,0,0.2-0.2,0.7-0.2c5.5-1.4,15.8-3,21-3.4
	c3.2-0.2,18.1-4.1,19.4-4.3c2.1-0.2,5.7-1.4,7.8-2.1c2.5-0.9,8.2-3.2,11-4.3c3-1.1,7.8-4.1,10.7-5.3c3-1.4,8.9-3.9,12.1-5
	c0,0,3.2-1.1,4.1-1.4c1.1-0.7,3.4-1.4,5-2.1c1.1-0.7,3.4-1.8,4.3-2.3c0.7-0.2,2.3-0.9,2.3-0.9s1.1,1.1,1.8,1.4s1.1,1.1,1.8,1.4
	c0.7,0.2,1.8,0.9,2.3,1.1c0.7,0.2,2.3,0.9,3.2,1.1c0.7,0.2,2.1,0.7,2.5,0.9c0.9,0.2,2.3,1.1,3.2,1.4c0.7,0.2,2.1,1.4,2.5,1.8
	c0.7,0.2,2.1,0.9,2.3,1.1s1.4,1.1,2.1,1.4c0.2,0.2,1.1,0.7,1.4,0.7c1.4,0.7,2.5-1.4,3.2-2.1c0.2-0.2,0.2-0.9,0.2-1.1
	c0-0.2-0.2-1.1-0.7-1.4s-0.9-1.1-1.1-1.4s-1.1-1.1-1.4-1.4c-0.7-0.2-1.4-1.1-2.1-1.4c-0.7-0.2-2.1-1.1-2.3-1.4
	c-0.2-0.2-1.4-0.7-1.4-0.7l1.1-2.1c0,0,0.9,0,1.1,0c0.7,0,1.4-0.2,2.1-0.2c0.7-0.2,2.1-0.2,2.3-0.2s1.4-0.2,1.8-0.2
	c0.9,0,2.5,0.2,3.9,0.2c0.7,0,2.1,0.2,2.3,0.2s1.8,0.2,1.8,0.2s0.9,0.7,1.1,0.7c0.7,0.2,1.8,0.7,2.3,0.7c0.2,0,1.1,0,1.4,0
	s1.1-0.2,1.1-0.2s2.3,1.1,3,1.1c0.2,0,0.9,0.2,1.1,0c0.2,0,1.1-0.2,1.4-0.2s0.7-0.2,0.7-0.2s0.7,0,1.1,0s1.1-0.2,1.4-0.7
	c0.2-0.2,0.9-0.7,1.1-0.9s0.2-0.7,0.2-0.9s-0.2-0.7-0.2-0.7c-0.2-0.2-1.1-0.9-1.4-1.1c-0.2-0.2-1.4-0.7-1.4-0.7l0.2-0.7
	c0.2-0.2,0.2-0.7,0.2-0.7c0-0.2-0.2-0.7-0.2-0.7c-0.2-0.2-0.7-0.7-0.7-0.7c-0.7-0.2-2.1-0.7-2.3-1.1c-0.7-0.2-2.1-0.7-2.5-0.9
	c-0.7-0.2-2.1-0.7-2.5-0.7c-0.7-0.2-2.1-0.7-2.5-0.7c-0.7-0.2-1.8-0.7-2.3-0.7c-0.7-0.2-2.3-0.2-3-0.7c-0.7-0.2-2.3-0.2-3-0.2
	c-0.7-0.2-2.3-0.7-3.2-0.7c-0.7-0.2-2.3-0.7-3.2-0.7c-0.9-0.2-2.5-0.2-3.4-0.2c-1.1,0-3.2,0.2-4.1,0.2c-1.1,0-3.9,0.2-5.3,0.2
	c-1.4,0-5.7,0-5.7,0l-5.7-0.2l-17.1,1.4c-4.1,0.7-12.8,0.9-16.9,1.4c-4.1,0.5-11.7,1.4-15.3,2.5c-3.2,0.9-9.4,3.2-12.1,4.3
	c-2.5,1.1-7.3,4.1-9.8,5c-2.5,0.9-8.7,0.2-11.4,0c-7.1-0.7-19,0.2-19,0.2L714,508.7z"/>
</svg>
