<?xml version="1.0" encoding="utf-8"?>
<!-- Generator: Adobe Illustrator 19.0.0, SVG Export Plug-In . SVG Version: 6.00 Build 0)  -->
<svg version="1.1" id="Layer_1" xmlns="http://www.w3.org/2000/svg" xmlns:xlink="http://www.w3.org/1999/xlink" x="0px" y="0px"
	 viewBox="0 0 2660 1600" style="enable-background:new 0 0 2660 1600;" xml:space="preserve">
<style type="text/css">
	.st0{fill:#27AAE1;}
	.st1{fill:#0064AE;}
	.st2{fill-rule:evenodd;clip-rule:evenodd;fill:#0064AE;}
</style>
<g>
	<path class="st0" d="M0-7.5v554C256.9,351,630.1,156.1,1075.6-7.5H0z"/>
	<path class="st0" d="M2660,1038.5c-182.9,72.8-379.9,140.4-587.6,200.6C1235,1481.8,447.1,1537.9,0,1416v191.5h1668.6
		c247.3-178,588.9-353.9,991.4-504.4V1038.5z"/>
	<path class="st0" d="M2027.4,1607.5c154.1-133.9,371.4-265.4,632.6-379.2v-89.5c-361.8,140.1-667.2,303.3-887,468.6H2027.4z"/>
	<path class="st0" d="M2017.3,1154.3c-884.8,256.4-1710.5,195.5-1844.2-135.9C45.8,702.9,591.5,256,1407.5-7.5h-236.3
		C654.6,177.9,238.6,411.9,0,639.4v672.5c378.4,179.1,1192.1,150.1,2060.8-101.6c213.5-61.9,414.7-132.7,599.2-209.3v-93
		C2471.5,1001.2,2254.3,1085.7,2017.3,1154.3z"/>
</g>
<path class="st1" d="M1414,1093.4c1.3-14.5,10-27.4,20.5-39.2c10.5-11.9,14.3-29.4,23.2-49.9c8.9-20.5,26.7-12.5,26.7-12.5l6.2,6.2
	c0,0,3.5,1.2,4.5,1.8c0.9,0.6,4,2.7,10.7,2.7c6.7,0,31.2-17.6,49-30.3c17.9-12.7,50.1-34.3,57.9-47.2c7.8-13,16.3-14.2,39.2-23.2
	c23-8.9,48.6-19.1,59.7-25.9c11.2-6.7,16.9-28.9,24.1-43.7c7.1-14.7,14.5-41.4,31.2-57.9c16.7-16.5,30.1-33,34.8-42.8
	c4.7-9.8,13.4-39,21.4-56.2c8-17.2,21.2-33.6,30.3-42.8c9.1-9.2,32.1-16.7,59.7-29.4c27.6-12.7,50.8-39.2,50.8-39.2l-0.9-6.2
	c0,0,7.4-11.6,19.6-23.2c12.2-11.6,41.5-42.8,48.1-50.8c6.7-8.1,10.1-2.2,17.8,4.5c7.8,6.7,12.5,7.1,12.5,7.1s5.8-10.4,7.1-9.8
	c-5.1-5.4-15.2-25-15.2-25s-43.4,8.5-62.4,11.6c-19,3.1-42.8,13.6-56.2,18.7c-13.4,5.1-31.2,11.6-40.1,16
	c-8.9,4.4-18.3,4.3-24.1,3.6c-5.8-0.7-9.8,1.1-10.7,1.8c-0.9,0.6-10.7,3.6-10.7,3.6s-6.2,5.6-8,3.6c-5.6-6.9,14.3-17.8,14.3-17.8
	s-5.3-3.3-8-6.2c-2.7-2.9,3.1-10.7,3.6-11.6c0.4-0.9,0.7-5.3,1.8-7.1c1.1-1.8,1.8-3.5,1.8-6.2c0-2.7,3.6-4.8,5.3-8.9
	c1.7-4.1,14.7-6.4,20.5-6.2s25.2,5.2,33.9,5.3c8.7,0.2,12.1-6,20.5-10.7c8.4-4.7,43.9-26.2,67.8-35.7s37.3-9.3,39.2-8.9
	c2,0.4,5.8-7.1,14.3-7.1c8.4-0.1,7.6,6.3,16.9,8.9s19.9,9.9,31.2,19.6c11.3,9.7,29.7,25.9,32.1,25.9c4.4,0.4,14.7,2.1,21.4,4.5
	c6.6,2.4,12.5,3.6,12.5,3.6l6.2,0.9c0,0,7.2-1.3,8.9-1.8c1.8-0.5,7.1,12.5,7.1,12.5l8,0.9l9.8-11.6c0,0,10.3-13.7,16-19.6
	c5.8-5.9,17.4-11.5,26.7-12.5c9.3-1,24.5,1.2,35.7,5.3c11.1,4.2,15.8,13,21.4,20.5c5.6,7.5,4.9,16.6,8.9,27.6
	c4,11.1-2.7,23.2-2.7,23.2s-3.8,3.4-5.3,14.3c-1.6,10.8-17.8,20.5-17.8,20.5s2.1,0.3,6.2,0.9c4.2,0.6,11.6-3.9,14.3-4.5
	c2.6-0.5,8.5,3,9.8,3.6c1.3,0.6,8-1.8,8-1.8l12.5-5.3c0,0,14.8-7.3,16-8c1.3-0.7,11.9-5.3,13.4-0.9c1.5,4.4-1.5,6.5-12.5,11.6
	c-11,5.1-19.6,12.5-19.6,12.5s3,0.1,6.2-1.8c3.3-1.9,13.9-2.8,15.2-2.7c1.3,0.1,16.1-5.1,19.6-6.2c3.5-1.2,8.3-3,8.9,2.7
	c0.6,5.7-12.6,9-19.6,10.7c-7,1.7-21.8,7.7-25.9,9.8c-4.1,2.2-3.6,4.5-3.6,4.5s17.7-1.9,19.6-2.7c2-0.7,17.4-0.8,19.6-0.9
	s7.9-3.3,8.9,0.9c1.1,4.2-3.1,6.8-14.3,8c-11.2,1.3-22,3.2-33,6.2c-11,3-9.8,8-9.8,8l5.3,3.6l20.5,7.1c0,0,11.9,2.7,9.8,7.1
	c-2.1,4.4-7.7,3.6-11.6,2.7c-3.9-1-15.5-4.6-22.3-8c-6.8-3.4-14.2-5.1-21.4-1.8c-7.2,3.3-17.5,4.3-25,3.6c-7.4-0.7-12.2-2.2-33,7.1
	c-20.8,9.3-57.9,24.1-74.9,28.5c-17,4.4-26.2,5.9-38.3,7.1c-12.1,1.3-19.3,3.9-22.3,5.3c-3,1.5-10.7,1.8-10.7,1.8
	s-11.5,8.8-18.7,13.4c-7.2,4.6-21.8,12.1-31.2,17.8s-22.3,14.3-22.3,14.3l-8.9-8c0,0-1,8.3,0.9,11.6c1.9,3.3,29.3,29,42.8,41.9
	c13.5,12.9,34.2,38.4,44.6,54.4c10.4,16,34,52.6,38.3,60.6c4.4,8,10.3,13.2,6.2,32.1c-4.1,18.9-15.5,19.4-24.1,26.7
	c-8.6,7.3-22.2,10.3-31.2,12.5c-9,2.2-6.2,4.9-32.1,13.4c-25.9,8.4-59.4,16.5-91.8,26.7c-32.4,10.2-35.1,17.9-40.1,25.9
	c-5,8-4.2,11.2-0.9,26.7s11.2,19.9,20.5,35.7c9.3,15.8,15.7,25.9,7.1,33c-8.6,7.1-21.8-0.2-30.3-6.2c-8.6-6.1-24.4-18.9-31.2-40.1
	c-6.8-21.2-16.2-30-22.3-35.7c-6.1-5.6-14.8-13.5-21.4-22.3c-6.5-8.7-5.1-15.3-0.9-22.3s25.5-16.7,30.3-17.8
	c4.8-1.2,5.3,3.6,5.3,3.6s17.9-4,41-14.3c23.1-10.3,58.5-28.3,72.2-43.7c13.7-15.4,37.4-26.7,37.4-26.7s-10.5-8.7-16.9-12.5
	c-6.5-3.8-26.1-11.2-33.9-13.4c-7.8-2.2-7.6-2-10.7-4.5c-3.1-2.4-17.4-11.4-33-20.5c-15.6-9.1-37.4-33.9-37.4-33.9l-10.7,3.6
	c0,0-43.4,51.5-50.8,60.6c-7.4,9.1-28.5,29.2-38.3,41.9c-9.8,12.7-47.4,31-56.2,46.4c-8.7,15.3-19.6,18.1-35.7,22.3
	c-16.1,4.2-48.3,17-74,30.3c-25.7,13.3-75.3,32.8-97.2,45.5c-21.9,12.7-56.6,41.5-58.8,44.6c-2.3,3.1-7.3,10.7-11.6,16
	c-4.3,5.3-8.9,3.6-14.3,9.8c-5.4,6.2-11.8,10.5-18.7,25c-7,14.4-6.4,25-22.3,25.9C1412.4,1150.4,1412.7,1107.9,1414,1093.4z
	 M2276.1,557.6c6.7-7.5,11.6-13.4,11.6-13.4s-8.7-2.3-11.6,2.7c-2.9,5-9.8,16.9-9.8,16.9S2269.4,565.1,2276.1,557.6z M2212.8,577.2
	c12.7-1.7,40.1-8.9,40.1-8.9l7.1-2.7c0,0-5.2-7.4-8-4.5c-2.9,2.9-6.5,6.4-9.8,6.2c-3.3-0.2-4.7-1.4-6.2-0.9
	c-1.5,0.5-2.5,3.7-6.2,3.6c-3.7-0.2-5.2-3.6-7.1-2.7c-2,0.9-8.7,5.1-13.4,2.7c-4.6-2.4-8.9-7.1-8.9-7.1s-3.4,6.9-7.1,8.9
	c-3.7,2.1-10.7,5.3-10.7,5.3S2200.1,579,2212.8,577.2z"/>
<path class="st1" d="M778,417.6l-3.8,1.3l-5,1.1c0,0-3.6,1.6-4.8,2.2c-1.3,0.7-3.9,2.4-5.1,3.4c-1.5,1.3-4.4,4.1-5.6,5.6
	c-1.1,1.3-3.1,4.2-3.9,5.7c-0.7,1.4-1.7,4.6-2.3,6.1c-0.5,1.4-1.2,4.4-1.9,5.7c-0.7,1.3-2.6,3.5-3.6,4.6c-1,1.1-3.2,3.1-4.2,4.2
	c-1.4,1.6-4.1,5-5.4,6.7c-1.7,2.1-5.1,6.3-6.6,8.5c-1.3,2-3.7,6.2-4.7,8.4c-0.9,2-2.2,6.3-2.9,8.4c-0.6,1.8-1.7,5.4-2.4,7.1
	c-0.6,1.6-2.7,6.2-2.7,6.2l-2.2-3.1c0,0-1.4-3.1-1.8-4.2c-0.8-2.1-2.2-6.2-2.8-8.3c-0.5-1.9-1.4-5.7-1.8-7.6c-0.5-2-1.1-6.2-1.8-8.1
	c-0.7-2-2.8-5.8-4-7.6c-0.8-1.2-3.4-4.5-3.4-4.5l-2.3-2.3l1.7-2.7l1.9-3.1c0,0,2.3-4.5,3-6c0.5-0.9,1.4-2.9,1.9-3.8
	c0.9-1.4,2.9-3.9,3.9-5.2c1.6-2.1,4.8-6.4,6.2-8.7c1.5-2.4,4.1-7.5,5.5-10c1.4-2.3,4.6-6.7,6-9.1c1-1.9,2.7-5.8,3.6-7.7
	c1.3-2.7,5.4-10.7,5.4-10.7l3.6-7.1c0,0,1.9-3.6,2.9-4.3c0.7-0.5,2.6-0.8,3.5-0.9c1.6-0.2,4.9-0.2,6.5,0c1.5,0.2,4.3,1.1,5.7,1.4
	c1,0.2,3.3,0.1,4.1,0.8c1,0.7,1.7,3.2,2.4,4.2c0.6,1,1.9,2.8,2.6,3.7c1.1,1.5,3.5,4.4,4.8,5.8c1.2,1.3,3.9,3.5,4.9,4.9
	c1.2,1.7,2.9,5.5,3.6,7.5c0.5,1.3,1.1,4,1.3,5.4C778.2,413.1,778,417.6,778,417.6z M806.1,287.7c2-3,2.1-5.4,3-8.8
	c0.8-3.2,1.9-11.3,1.7-13.1l1.7,0.1c0,0,5.4,7.5,7.1,10.1c1.2,1.9,3.2,6.1,4.6,8c1.5,2.1,5,6,7.1,7.5c2.5,1.8,8.2,4.4,11.2,5
	c1.1,0.2,4.7,0.1,4.7,0.1s-6.9-4.4-9-6.2c-1.2-1.1-4.4-4.9-4.4-4.9s5.6,3.9,7.6,4.9c1.6,0.8,5.1,1.9,6.8,2.6c2.6,1,7.6,3.9,10.4,4.2
	c1.5,0.1,5.8-1.2,5.8-1.2s-5.2-2.2-6.7-3.3c-1.4-1-4.8-4.7-4.8-4.7s6.8,2.9,9.1,3.8c1.9,0.7,5.8,2.1,7.9,2.4
	c1.7,0.3,5.2,0.5,6.8,0.1c1.4-0.3,5-2.5,5-2.5s-5.2-1.1-6.9-1.5c-2.4-0.6-7.2-1.8-9.4-3c-2-1-7.1-5.4-7.1-5.4l6.8,0.1
	c0,0-5.2-1.5-6.8-2.3c-3-1.5-8.3-5.4-11-7.4c-4.9-3.7-13.9-12-19-15.4c-2.6-1.7-8.1-4.9-11-6c-2-0.7-8.6-6.8-8.6-6.8l-4.6-5.1
	c0,0-3-5.6-4.6-6.8c-0.9-0.7-3.1-1-4.1-1.4c-1.8-0.8-5.2-2.8-7.1-3.4c-1.4-0.5-3.9-1.4-6-1.3c-0.8,0.1-2.4,0.8-3.2,1
	c-1.1,0.3-3.2,1-4.2,1.4c-2.4,1.1-6.6,4.2-8.9,5.4c-1.1,0.6-3.5,1.6-4.7,2.3c-1,0.6-3,1.9-4,2.6c-1,0.8-3,2.6-3.7,3.7
	c-0.7,1-1.5,3.3-1.9,4.4c-0.5,1.2-1.4,3.8-1.7,5c-0.3,1.3-1,5.4-1,5.4v6.2c0,0-0.3,3.8-0.4,5c-0.1,1.7-0.5,5.2-0.6,7
	c-0.1,2.2-0.2,6.5,0,8.6c0.2,1.8,0.6,5.6,1.2,7.3c0.6,1.9,2.9,5.4,3.7,7.3c0.6,1.3,1.3,4.2,1.9,5.5c0.4,0.9,1.4,2.8,2,3.6
	c0.5,0.7,2.3,2.3,2.3,2.3l-6.2,5.1l-6.5,5.5c0,0-4.3,3-5.6,4.2c-1.7,1.4-4.6,4.6-6.2,6.2c-1.7,1.6-5.1,4.8-6.6,6.6
	c-1.1,1.3-3,4.4-4.1,5.7c-1.3,1.5-4.2,4.2-5.6,5.6c-1.2,1.2-3.7,3.5-4.8,4.8c-1.2,1.3-3.3,4.1-4.2,5.6c-1,1.6-3.2,7-3.2,7l-2.9,7.8
	c0,0-1.9,6.2-2.6,8.3c-0.8,2.2-2.8,6.4-3.8,8.5c-1.1,2.4-3.5,7.2-4.7,9.6c-1.3,2.7-3.9,8-5.4,10.6c-0.9,1.6-2.9,4.7-4,6.2
	c-1.2,1.8-3.5,5.6-4.9,7.3c-1.5,1.8-5.2,4.9-6.7,6.7c-1.4,1.6-3.6,5.2-4.8,7c-1.4,2.1-5.4,8.3-5.4,8.3l-4.7,10L653,466
	c0,0-3.5,9.1-4.6,12.1c-1,2.8-2.5,8.4-3.6,11.2c-0.8,2.1-2.8,6.2-3.8,8.3c-1.9,4-2.9,6.9-4.3,9c-0.2,0.3-0.7,0.7-0.9,1
	c-1.3,1.3-4.1,3.9-5.5,5.1c-1.2,1.1-3.8,3.1-5,4.1c-1,0.8-3,2.5-3.9,3.4c-0.8,0.8-2.4,2.5-3.2,3.4c-0.6,0.8-1.7,2.5-2.2,3.3
	c-0.6,0.8-1.6,2.5-2.2,3.3c-0.6,0.7-2,2-2.6,2.8c-0.6,0.7-1.8,2.2-2.3,3c-0.4,0.6-1.2,1.9-1.6,2.5c-0.5,0.7-1.5,2.2-2,2.9
	c-0.5,0.7-2.1,4.4-2.9,8.7c-0.3,1.8,0.1,3.3,0.1,3.3s-0.6,1.5-0.7,2c-0.1,0.5-0.5,1.6-0.4,2.1c0,0.3,0.2,0.8,0.4,0.9
	c0.2,0.2,0.8,0.4,1.1,0.4c0.5,0.1,1.4,0,1.8-0.1c0.4-0.1,1.3-0.5,1.7-0.8c0.3-0.2,0.9-0.9,0.9-0.9s0.6-0.3,0.8-0.4
	c0.4-0.2,1.3-0.5,1.6-0.8c0.3-0.2,0.8-0.7,1-1c0.4-0.5,2.6-4.8,4.8-8c1.4-2,3-3.4,3.2-3.6c0.5-0.6,1.5-1.9,2-2.5
	c0.8-0.9,2.3-2.8,3.2-3.6c0.4-0.4,1.3-1,1.8-1.3c0.6-0.4,1.9-1.3,2.6-1.8c0.5-0.3,1.6-1,2-1.4c0.3-0.2,0.7-0.9,1-0.9
	c0.4,0,1.3,0.9,1.3,0.9s-0.7,1.4-0.9,1.9c-0.3,0.9-0.8,2.7-1,3.6c-0.2,0.8-0.5,2.4-0.6,3.2c-0.1,0.7-0.1,2.1-0.1,2.9
	c0,0.6,0.1,1.7,0.2,2.3c0.1,0.5,0.5,1.5,0.9,1.9c0.2,0.3,2.4,3.9,5.4,0.2c0.3-0.4,0.6-1.4,0.7-1.9c0.2-0.8,0.5-2.4,0.7-3.2
	c0.2-0.8,1.4-2.3,1.6-3.2c0.3-0.9,0.6-2.9,0.9-3.8c0.3-1.1,1-3.1,1.5-4.1c0.4-0.8,1.5-2.3,1.9-3.1c0.5-0.9,1.6-2.8,2-3.8
	c0.3-0.8,3-9.1,3-9.1l0.5-1c0,0,2.6-4,6-8.3c3.2-4.1,13.5-15.7,13.5-15.7l1.2,7.1c0,0,1.8,5.5,2.6,7.3c0.9,2.1,3.4,5.9,4.3,7.9
	c1,2.1,2.7,6.5,3.5,8.8c0.7,1.9,1.8,5.9,2.3,7.9c0.5,2.2,1.1,6.6,1.7,8.8c0.5,2.1,1.7,6.4,2.5,8.4c0.7,1.7,2.4,4.9,3.4,6.5
	c1.1,1.7,3.3,5.2,4.8,6.6c1.1,1,3.6,2.9,5,3.4c1.3,0.4,4.1,0.2,5.4,0c1.8-0.3,5.4-1.4,7.1-2.3c1.5-0.8,4.3-2.9,5.4-4.2
	c1.2-1.4,2.9-4.6,3.6-6.2c0.4-1,1.3-3.1,1.6-4.2c0.4-1.6,1-6.6,1-6.6l3.7-3.7c0,0,5.6-4.7,7.4-6.3c1.7-1.6,4.7-5,6.5-6.5
	c1.5-1.3,5-3.5,6.5-4.8c2.4-2.1,7-6.4,8.9-8.9c1.6-2.1,4-6.7,5.1-9.1c1.2-2.7,3.2-8.4,4-11.3c0.8-2.7,2.3-11.2,2.3-11.2l3.2,1.9
	c0,0,6,4.2,8,5.4c1.4,0.9,4.3,2.6,5.9,3.1c1.2,0.4,3.6,0.6,4.8,0.7c1.6,0.1,6.4,0,6.4,0v4.6l-1.3,8l-1.4,6.2c0,0-1.4-1.7-2-2
	c-0.9-0.5-2.9-1.2-4-1.3c-1.1-0.2-3.4-0.2-4.6,0c-1.2,0.2-3.4,1-4.4,1.7c-1.2,0.8-3.1,2.9-4,4c-0.9,1.1-2.3,3.5-2.9,4.7
	c-0.9,1.8-2.3,5.7-2.9,7.7c-0.6,1.8-1.5,5.6-1.7,7.6c-0.1,1-0.2,3.1,0,4.1c0.2,1.3,1.1,3.8,1.6,5c0.5,1.3,1.9,3.8,2.4,5.2
	c0.4,1.1,1.2,3.5,1.3,4.7c0.2,1.3,0.2,4,0,5.3c-0.2,1.6-1.2,4.8-1.6,6.5c-0.3,1.2-0.8,3.6-1,4.8c-0.2,1-3.5,15.6-3.6,16.9
	c-0.1,1.4,0.2,4.4,0.7,5.8c0.5,1.3,2.2,3.6,3.2,4.6c0.7,0.7,2.5,1.6,3.4,2c1.1,0.5,3.5,1.2,4.7,1.3c1.1,0.2,3.4,0.2,4.4,0
	c1.1-0.2,3.3-1,4.3-1.7c0.9-0.6,2.2-2.2,2.9-2.9c1-1,3-2.8,3.8-3.8c1-1.2,2.7-4,3.4-5.4c0.8-1.7,1.7-5.4,2.3-7.2
	c0.5-1.6,1.7-4.8,2-6.5c0.3-1.4,0.6-4.2,0.7-5.6c0.2-1.4,0.6-5.5,0.6-5.5l3.7-6.4c0,0,3.6-6,4.8-7.9c2.7-4.2,8.2-12.5,11-16.6
	c2-3,6.4-8.7,8.3-11.8c2.3-3.7,6.4-11.3,8.3-15.2c1.1-2.3,4.2-9.5,4.2-9.5l1.9-6.2c0,0,4,1.9,5.4,2.4c1.2,0.4,3.6,0.8,4.8,1.2
	c1.6,0.5,4.6,2.2,6.2,2.5c1.5,0.3,4.6,0.1,6.1,0c1.5-0.1,4.6-0.6,6.1-1.1c2.4-0.8,6.8-3.3,8.9-4.7c2.6-1.8,7.5-5.9,9.7-8.2
	c1.7-1.7,5-5.4,6.4-7.4c1.2-1.8,3.2-5.7,4.1-7.7c0.7-1.6,1.8-5,2.3-6.7c0.5-2.1,1.3-6.5,1.6-8.6c0.3-2.4,0.6-9.6,0.6-9.6l4.2,9.2
	l6.4,9.8c0,0,5.4,7.4,7,10c1.5,2.4,5.3,9.8,5.3,9.8l4.4,10.7l2.8,7.2l2.4,5.3c0,0,3.7,10.3,3.6,11.1c-0.1,0.7-0.5,2.1-0.5,2.8
	c-0.1,0.8-0.9,8.6-1,9.2c0,0.7,0.1,2,0.2,2.7c0.1,1.2,0.3,3.6,0.5,4.8c0.1,0.8,0.2,2.3,0.2,3.1c0.1,0.9,0.1,2.8,0.2,3.7
	c0,0.7,0,2.2,0.1,3c0,0.7,0.1,2.1,0.1,2.7c0,0.6-0.1,1.7-0.1,2.3c0,0.4,0.2,1.1,0.4,1.5c0.1,0.2,1.2,0.7,2,0.5
	c1.2-0.2,2.4-1.3,2.7-1.6c0.3-0.4,0.7-1.3,0.9-1.8c0.2-0.6,0.4-1.9,0.5-2.6c0.1-0.6,0.8-4,0.8-4.4c0.1-0.7,0.5-2.4,0.2-4.5
	c-0.2-1.9-0.7-2.4-0.5-2.7c0.1-0.3,0.8-0.7,1.1-0.8c0.3-0.1,0.9,0.2,1.2,0.2c0.5,0.1,2,0.6,2,0.6l1.2,0.6l1.4,0.6
	c0,0,0.3,0.9,0.5,1.2c1.3,3,3.9,7.2,5.9,9.6c0.7,0.9,2,3.6,2.3,4.1c0.4,0.6,1.2,1.8,1.5,2.4c0.2,0.3,0.7,0.9,0.8,1.3
	c0.2,0.4,0.6,1.3,0.8,1.8c0.3,0.5,0.8,1.6,1.1,2c0.3,0.5,1.1,1.3,1.5,1.7c0.3,0.3,1.1,0.7,1.5,0.9c0.3,0.1,0.8,0.2,1.1,0.2
	c2.2,0,1.6-2.4,1.6-2.4s1.8,2.1,3.4,1.2c0.2-0.1,1.5-0.9,1-2.5c-0.2-0.6-0.7-1.9-1-2.5c-0.2-0.5-0.7-1.5-0.9-2.1
	c-0.1-0.3-0.5-1.3-0.5-1.3s2,1.7,3.1-0.5c0.1-0.2,0.2-0.6,0.2-0.8c0-0.4-0.3-1.1-0.4-1.4c-0.3-0.6-0.9-1.8-1.2-2.4
	c-0.4-0.7-1.1-2.1-1.4-2.9c-0.3-0.7-0.8-2.2-1.1-3c-0.3-1-1.4-3.8-1.4-3.8s0.8,1.3,1.1,1.7c0.3,0.4,0.9,1.3,1.3,1.6
	c0.3,0.3,1,0.8,1.4,1c0.3,0.1,1,0.4,2.1-0.3c0.2-0.1,0.8-0.7,0.6-1.4c-0.1-0.3-1.3-2.4-1.5-2.9c-0.3-0.7-1.2-1.8-1.6-2.5
	c-0.4-0.6-0.9-1.9-1.2-2.5c-0.5-0.8-1.5-2.4-2.1-3.2c-0.6-0.9-1.9-2.6-2.5-3.4c-0.5-0.7-2.7-4.9-3.2-5.7c-3.2-4.9-10.7-9.1-9.5-8.2
	c0.8,0.5-5-23-5-23s-3.7-11.9-5-15.8c-1.1-3.5-3.4-10.5-4.7-13.9c-1.7-4.3-5.4-12.8-7.4-17c-1.5-3.2-5-9.4-6.6-12.6
	c-1-1.9-3-5.6-3.8-7.6c-0.5-1.2-1.1-3.8-1.7-5c-0.7-1.5-2.5-4.2-3.4-5.6c-1.3-2.1-5.3-8.4-5.3-8.4l-13.9-22c0,0-13-11.5-13-18.8
	c0-3.4-5.8-8.2-7.8-10.9c-1.7-2.2-16.8-17.7-18.5-19.9c-1.8-2.4-10.1-15.6-20.6-18.9c-2-0.6-5.5-3.4-7.4-4.2c-1.3-0.6-4-1.3-5.4-1.7
	c-1.9-0.5-28.2-2.7-28.2-2.7v-6L806.1,287.7z"/>
<path class="st2" d="M1049.6,929.6c-0.2,1.1-1.1,1.9-1.2,2.8c-0.2,1.6,0.4,3.7,0.8,5.1c0.4,1.5,1,2.9,1.3,4.4
	c-4.4-5.6-8.9-11.1-13-16.9c0.2-0.3,0.4-0.5,0.5-0.9c4.1-0.8,8.7-1.2,13-1.9c-0.4,0.7-1.1,1.1-1.3,1.9
	C1049.1,926,1049.9,927.8,1049.6,929.6z M1150.8,1123.7c-2.2,3.1-3.5,6.7-5.8,9.6c-1.1,1.4-2.8,2.7-4.2,4c-3.4,3.4-6.8,6.7-10,10.3
	c-0.6,0.6-0.9,1.7-1.9,1.9c-1.4-8.1-5-14.7-9.5-19.2c5.6-2,12.1-1.8,18.1-2.9c4.3-0.8,9-2.8,13.3-3.9
	C1151,1123.6,1150.9,1123.7,1150.8,1123.7z M1190.1,880.8c-1.4-0.2-2,1.5-3.4,1.9c-0.9,0.2-2.2-0.8-3.4-0.8c-2,0-6.2,0.9-6.2,0.9
	s0.1,0.9,0.7,1.5c0.5,0.6,0.7,0.8,0.7,0.8s-0.9,0.5-1.2,0.5c-1,0.1-2.8-1.1-3.2-0.4c-0.2,0.3,0,1,0.3,1.4c0.2,0.3-0.1,1.1-0.1,1.1
	s-0.5,0.4-0.7,0.7c-0.6,0.6-1,2.5-1.1,3.3c0,0.7,0.6,1.9,0.6,2.5c0,0.6-0.3,1.7-0.3,2.3c-0.1,0.5-0.3,1.4-0.2,1.8
	c0.1,0.5,0.4,1.5,0.4,1.5s-0.5,1.4-0.8,3.8c-0.1,1.2-0.4,2.4-0.5,2.9c-0.3,0.9-1.7,2.3-2.3,3c-0.8,1.1-1.5,2.7-3.6,4.1
	c-1.2,0.9-1,2.5-0.5,2.9c0.6,0.6,2.9,2.2,2.9,2.2s-1.3,3.1-1.2,3.5c0.1,0.4,0.1,0.4,0.3,0.8c0.1,0.2,1.7,1.1,1.7,1.1
	s-1.5,1.4-1.4,1.8c0.1,0.5,1,1.6,1,1.6s0.1,2.2,0.2,4c0,0.8,0.8,3.1,0.8,3.1c-6-0.5-21.7-0.6-30.7,2c-2.6,0.8-5.6,1.1-8.2,0.9
	c-1.4-0.1-3-0.5-4.6-0.7c-1.7-0.2-3.6,0.1-5.1-0.3c-1-0.2-2.4-1.4-3.5-2.1c-1.2-0.8-2.4-1.8-3.5-2.3c-1.7-0.7-3.8-1-5.8-1.6
	c-4-1.1-7.8-1.8-11.8-2.9c-1.9-0.6-5.6-1.7-5.6-1.7s-3.8-5-5.5-6.2c-0.7-0.5-2.1-0.8-3.1-1.2c-2.8-1-7.9-0.1-7.9-0.1s-3.5-4.5-8-5.1
	c-2.7-0.3-3.5,1.1-3.5,1.1s-2.5-0.3-3.6-0.1c-2.3,0.3-4.1,0.8-5.8,1.9c-1,0.6-1.3,2.1-2,3.1c-3.2,0.2-17.2,0.8-20.4,0.4
	c-1.8-0.2-129-32.6-182-46.5c1.7-10.5-3.9-17.6-12.6-18.3c-1.1-0.1-2.2-0.1-3.3,0c-7.4,0.7-12.3,5.6-13,13c-0.1,1.1-0.1,2.2,0,3.3
	c0.6,6.8,5.3,11.4,11.9,12.7c8,1.6,13.2-3.1,16.2-8c60.4,15.5,120.9,31,181.5,46.3c4.7,5.1,19.6,21.5,21.4,22.5
	c2.7,1.4,5.5,1.4,8.7,0.8c0.6-0.1,0.1-1.4,0.8-1.5c2.6,1.3,6.2,0.1,8.8,0.5c1.3,0.2,2.8,1.2,4.2,1.7c1.4,0.6,3,1.2,4.2,1.9
	c2.2,1.2,3.8,3.3,6,4.4c2,1,4.1,1.3,6.2,2.4c1.4-0.6,2.3-1.6,3.6-2.3c8.8,5.1,17.8,10,27.5,14.2c2.4,1,5,1.8,7.6,2.8
	c2.5,0.9,5,2.2,7.6,2.8c2.8,0.7,5.6,1.4,8.6,1.9c2.9,0.5,6.1,0.3,9.2,1.2c0.3,5.1,0.5,9.7,0.8,14.2c0.1,1.2,0.3,2.3,0.1,3.3
	c-0.4,2.9,2,13.9,2.3,16.2c1.8,13.9-0.6,27.1,1.2,40.7c0.2,1.7,1.1,5.5,0.8,6.8c-0.2,1.1-2.4,2.9-3.5,4c-2.8,2.9-4.8,4.9-7.4,7.6
	c-1.2,1.3-2.4,3.1-3.8,3.8c-1.3,0.6-2.9,0.9-4.3,1.3c-4.4,1.4-8.3,2.9-12.3,4.7c-5.2,2.3-10.6,4.2-15.4,7.2c-4.8,3-9.4,5.7-13.7,9
	c-4.2,3.3-9.3,5.6-12.9,9.8c-2.6,3.1-3.5,6.1-4.8,9.9c-0.6,1.9-1.4,3.5-1.5,5.6c0,2.2,0.1,4,0.9,6.2c1.3,3.4,2.3,7.2,4.2,10
	c1.8,2.9,3.5,5.8,5.6,8.7c2,2.7,4.2,5.3,6.3,7.9c2.1,2.7,4.8,4.8,7.2,7.1c2.4,2.2,4.6,4.7,6.8,7.4c2.3,2.7,6.4,7.9,6.4,7.9
	s1.3,5.6,1.5,8.2c0.1,1.2-1,2.7-1.5,3.9c-1.4,3.2-3.8,6.6-4.4,10c-2,10.9-3.2,22.1-5.1,33.5c-0.2,1.4-0.4,2.9-0.8,4
	c-0.4,1-1.2,2-1.7,3.1c-1.6,2.9-3.2,5.5-5.9,7.6c-1.2,1-1.6,2.5-2.3,3.9c-4.7,3.1-9.6,5.7-15,8.6c-1.2,0.6-2.4,1.5-3.9,2
	c-1.4,0.5-2.9,0.8-4.6,1.3c-2.5,0.8-6.9,2-7.9,3.9c-0.8,1.6,0.3,4.4,1.3,5.9c0.9,1.4,3.8,4,5.2,4.6c1.1,0.5,2.8,0.8,4.3,1.2
	c1.5,0.4,3.1,1.1,4.4,1.2c5.1,0.5,11.4,0.1,16.6-0.3c2.3-0.2,5-1,7.4-1.1c2.7-0.1,6.2,0.5,8-0.1c1.1-0.4,4.3-3.2,4.7-4.2
	c0.5-1.3,0.7-4.2,0.5-5.6c-0.1-1.5-1-3.1-1.1-4.8c-0.1-2.2,0.7-3.9-0.4-5.2c2.5-6.3,6.2-11.7,9.6-17.3c3.4-5.4,7-10.8,10.7-16.2
	c1.7-2.5,3-5.8,4.4-9c1.4-3.2,2.9-6.2,3.9-9.6c0.9-3.3,2.5-7,2.7-10.7c0.2-4.1,0.2-8.9-0.1-13.4c3.3-3.7,6.5-7.7,10.4-10.8
	c3.9-3.2,9.9-6.5,13.8-9.8c1.9-1.6,4-3.1,5.8-4.8c5.5-5.2,10.5-11,16.2-15.9c10.5-9,19-18.1,27.3-29.2c0.8-1.1,1.2-2.2,1.9-3.5
	c2.5-4.7,4.9-9.4,5.9-15.5c0.7-4.8,0-10-0.7-14.6c-0.6-4.5-1.6-9.2-1.9-13.8c-0.4-5.5,0.3-10.6-0.3-15.4c-0.6-4.9-1.3-9.9-1.9-14.5
	c1.4-3.3,2.8-6.8,4.3-10.3c1.4-3.4,3.2-7,4.2-10.6c0.6-2.4,0.8-5.2,1.2-7.9c0.4-2.6,0.9-5.5,1.1-8.2c0.4-5.7,0-11.9,0.3-18.2
	c0-0.6,0.1-1.3,0-1.9c-0.5-4-1.9-8-2.8-11.9c-0.9-3.8-2.4-7.5-3.8-11.1c-1.3-3.4-3.7-6-5.8-9.1c-0.9-1.3-1.7-2.9-2.7-4.7
	c-0.9-1.6-2-3.9-3.2-4.3c-1.2-0.3-2.9,0.4-3.8-0.1c-0.1-1.6-0.2-3.1-0.3-4.7c1.3-3,4-5.2,5.8-8c1-1.6,2.5-4.1,2.7-6
	c0.3-2.9,1-6.8,0.5-9.5c-0.4-2.2-1.3-4.6-2-6.7c-0.8-2.2-1.5-4.4-2.3-6.4c-0.7-1.8-3.2-3.5-4.6-4.8c-1.5-1.5-3.2-2.8-5.1-3.5
	c-2.7-0.9-5.7-0.6-8.7-0.8c-2.8-0.2-4.9-1-7.3-1.6C1192.7,882.2,1190.8,880.9,1190.1,880.8z"/>
<path class="st1" d="M675.4,800.9V798c0,0-1.9-12.7-2.9-19.3c-1-6.6-16.4-15.4-16.4-15.4s-12.5-28.1-17.4-38.6
	c-4.8-10.5-17.2-30.9-17.4-33.8c-0.2-2.9-7.9-7.2-14.5-19.3c-13.5-26.2-28.9-34.7-28.9-34.7l1-5.8l1-6.8c0,0,3.5-5,5.8-8.7
	c2.2-3.7,3.4-17.5,3.9-24.1c0.5-6.6-6.9-19-7.7-21.2c-0.8-2.3-9.6-15.4-9.6-15.4l-3.9-2.9l-4.8-3.9h-1l-6.8,1.9l-3.9,1.9l1-1.9
	l-1-2.9c0,0-3.9-4.8-4.8-5.8c-1-1-1.9-1-1.9-1s-5.3-1.4-5.8-1.9c-0.5-0.5-2.9,1-2.9,1l-1,3.9l-2.9,1l-1.9-2.9l-2.9-2.9
	c0,0-5-4.3-5.8-5.8c-0.8-1.4-2.9-1.9-2.9-1.9s-0.3,1.8,0,2.9c0.3,1.1-1.9,5.8-1.9,5.8l-1.9,4.8l-1.9,2.9h-1l-2.9-1.9l-3.9-2.9v2.9
	l-3.9-1.9l-1,4.8l-1.9-1h-2.9v5.8l1,3.9v3.9v2.9l-4.8-1l1.9,3.9l3.9,1.9l-5.8,1l5.8,1l-1,1.9l-3.9,2.9l4.8-1l-2.9,3.9
	c0,0-0.6,3.7-1,4.8c-0.3,1.1,2.9,3.9,2.9,3.9l4.8,6.8c0,0,0.3,4.8-1,7.7c-1.3,2.9,0,9.6,0,9.6L494,607L436.1,550l-7.7-1.9l1.9,7.7
	l41.5,46.3c0,0-42.8-13.2-66.6-18.3c-23.8-5.1-45.4-6.6-59.8-7.7c-14.5-1.1-38.8-1.4-48.2-1c-9.5,0.5-34.6,9.2-39.6,10.6
	c-5,1.4-10.1,4.8-9.6,6.8c0.5,1.9,2.9,2.9,2.9,2.9l9.6-2.9c0,0-10.1,8.5-13.5,11.6c-3.4,3.1,0,7.7,0,7.7s-5.6,5.1-4.8,7.7
	c0.8,2.6,5.8,1.9,5.8,1.9l10.6-5.8l16.4-8.7l1,1.9c0,0-10.6,5.6-16.4,8.7c-5.8,3.1-8.4,6.9-7.7,9.6s7.7,1,7.7,1s15.3-8.4,15.4-8.7
	c-2.4,1.8-3.4,10.3-1,12.5c2.4,2.3,6.4-3.2,7.7-4.8c1.3-1.6,9.6-5.3,14.5-6.8c4.8-1.4,7.5-4.2,11.6-9.6c4-5.5,13.5-8.7,13.5-8.7
	s22.5,1,40.5,7.7c18,6.8,36.7,10.1,47.3,10.6c10.6,0.5,10.6,3.1,13.5,3.9c2.9,0.8,12.2,1,17.4,2.9c5.2,1.9,24.9,14.2,25.1,13.5
	c4.8,5.5,10.6,28,10.6,28s10.8,2.7,22.2,5.8c11.4,3.1,10,12.5,9.6,19.3c-0.3,6.8,1,33.8,1,33.8l-5.8,5.8v5.8l3.9,15.4l-14.5,5.8v4.8
	l9.6,23.2l16.4,36.7l9.6,20.3l4.8,5.8l9.6,23.2l-1.9,6.8l4.8,11.6l-7.7,8.7c0,0-10.5,4.7-17.4,11.6c-6.9,6.9-19.5,19.6-33.8,30.9
	c-14.3,11.2-28.6,26.7-33.8,34.7c-5.1,8-12.9,17.1-19.3,26.1c-6.4,9-7.7,13.5-6.8,21.2c1,7.7,4,14.2,5.8,28.9
	c1.8,14.8,4.3,47,7.7,66.6c3.4,19.6,8.7,43.4,8.7,43.4s1.1,10.6,1,21.2c-0.2,10.6-0.3,13.7-2.9,16.4c-2.6,2.7-9.6,7.7-9.6,7.7
	l-11.6,2.9l-1.9,1.9c0,0,14.8-0.6,14.5,1c-0.3,1.6-6.8,4.8-6.8,4.8s-15.3,1.6-20.3,6.8c-3.9,4-8,12.3,4.8,27
	c12.9,14.8,27.2,7.9,37.6,6.8c10.4-1.1,19.1-0.1,19.3,0c-8,14.9-39.6,29.8-47.3,33.8c-7.7,4-13.3,5.3-13.5,16.4
	c-0.2,11.1,16.6,15.8,30.9,17.4c14.3,1.6,29.9-5.6,40.5-11.6c10.6-6,23.6-11.1,35.7-15.4c12.1-4.4,15.4-12.5,15.4-12.5s0.2-8-1-15.4
	c-1.1-7.4-3.5-13.5-2.9-20.3c0.6-6.8,14.5-35.2,26.1-56c11.6-20.8,16.4-38.7,16.4-50.2s2.9-38.6,3.9-48.2c1-9.7,16.4-26.1,16.4-26.1
	s22.4-20.9,35.7-49.2c17-35.7,24.9-38.7,30.9-43.4c5.9-4.7,15.1-11.2,22.2-28c7.1-16.7-5.8-47.3-5.8-47.3s-1-14-1.9-19.3
	c-1-5.3-4.5-12.2-5.8-18.3c-1.3-6.1-2.4-15.3-1-22.2c1.4-6.9-4.8-28-4.8-28l-2.9-13.5c0,0,3.4,3.7,3.9,4.8c0.5,1.1,6.8,5.8,6.8,5.8
	s221.9,234.3,223.8,235.4c1.9,1.1,2.9-1.9,2.9-1.9L675.4,800.9z M525.8,1063.3c-5.3,20-3.4,22.5-3.9,25.1c-0.5,2.6-1.3,12.5,1.9,28
	c3.2,15.5,0.8,22.1-1.9,28.9c-2.7,6.8-5.3,14.1-6.8,31.8c-1.4,17.7-2.7,18.6-5.8,25.1c-3.1,6.5-9.3,20.1-13.5,22.2
	c0,0-7.1-9.7-7.7-22.2c-0.6-12.5-1.4-47.8,1-56c2.4-8.2,9.5-32.2,3.9-59.8c-5.6-27.6-6.8-42.5-6.8-42.5s4.5-11.1,13.5-15.4
	s50.2-20.3,50.2-20.3S531.1,1043.3,525.8,1063.3z"/>
</svg>
