<?xml version="1.0" encoding="utf-8"?>
<!-- Generator: Adobe Illustrator 17.1.0, SVG Export Plug-In . SVG Version: 6.00 Build 0)  -->
<!DOCTYPE svg PUBLIC "-//W3C//DTD SVG 1.1//EN" "http://www.w3.org/Graphics/SVG/1.1/DTD/svg11.dtd">
<svg version="1.1" id="Layer_1" xmlns="http://www.w3.org/2000/svg" xmlns:xlink="http://www.w3.org/1999/xlink" x="0px" y="0px"
	 viewBox="0 0 3000 2000" enable-background="new 0 0 3000 2000" xml:space="preserve">
<radialGradient id="SVGID_1_" cx="423.9199" cy="308.8617" r="1402.3619" gradientTransform="matrix(1 0 0 -1 0 1999.35)" gradientUnits="userSpaceOnUse">
	<stop  offset="0" style="stop-color:#6DBCDB"/>
	<stop  offset="0.3768" style="stop-color:#6DBCDB"/>
	<stop  offset="0.7626" style="stop-color:#6DBCDB"/>
	<stop  offset="1" style="stop-color:#6DBCDB"/>
</radialGradient>
<path fill="url(#SVGID_1_)" d="M2289.2,2000C1545.3,1359,0,1405.3,0,1405.3V2000H2289.2z"/>
<path fill="#FFFFFF" d="M1569.3,2000C1317.4,1490.9,0,1477.3,0,1477.3V2000H1569.3z"/>
<radialGradient id="SVGID_2_" cx="857.0005" cy="110.35" r="912.0119" gradientTransform="matrix(1 0 0 -1 0 1999.35)" gradientUnits="userSpaceOnUse">
	<stop  offset="0" style="stop-color:#FC4349"/>
	<stop  offset="6.030000e-02" style="stop-color:#FC4349"/>
	<stop  offset="0.6915" style="stop-color:#FC4349"/>
	<stop  offset="1" style="stop-color:#FC4349"/>
</radialGradient>
<path fill="url(#SVGID_2_)" d="M0,1579.2c0,0,717.5,13.7,867.5,420.8H0V1579.2z"/>
<radialGradient id="SVGID_3_" cx="555.5488" cy="339.6586" r="1830.4961" gradientTransform="matrix(1 0 0 -1 0 1999.35)" gradientUnits="userSpaceOnUse">
	<stop  offset="0" style="stop-color:#FC4349"/>
	<stop  offset="6.030000e-02" style="stop-color:#FC4349"/>
	<stop  offset="0.6915" style="stop-color:#FC4349"/>
	<stop  offset="1" style="stop-color:#FC4349"/>
</radialGradient>
<path fill="url(#SVGID_3_)" d="M0,1345.3c0,0,2661,393.3,3000,96V2000h-747c0,0-356-522.7-2253-594.7V1345.3z"/>
<path fill="#FFFFFF" d="M0,1293c0,0,2323,404,3000-332v516.3c0,0-463,261.4-3000-132V1293z"/>
<radialGradient id="SVGID_4_" cx="3009" cy="1236.6814" r="3580.032" gradientTransform="matrix(1 0 0 -1 0 1999.35)" gradientUnits="userSpaceOnUse">
	<stop  offset="0" style="stop-color:#6DBCDB"/>
	<stop  offset="0.3768" style="stop-color:#6DBCDB"/>
	<stop  offset="0.7626" style="stop-color:#6DBCDB"/>
	<stop  offset="1" style="stop-color:#6DBCDB"/>
</radialGradient>
<path fill="url(#SVGID_4_)" d="M0,1185c0,0,1500,487.6,3000-628v443c0,0-399,672.6-3000,293V1185z"/>
<radialGradient id="SVGID_5_" cx="81.6421" cy="1319.9237" r="2915.5808" gradientTransform="matrix(1 0 0 -1 0 1999.35)" gradientUnits="userSpaceOnUse">
	<stop  offset="0" style="stop-color:#FC4349"/>
	<stop  offset="6.030000e-02" style="stop-color:#FC4349"/>
	<stop  offset="0.6915" style="stop-color:#FC4349"/>
	<stop  offset="1" style="stop-color:#FC4349"/>
</radialGradient>
<path fill="url(#SVGID_5_)" d="M0,1185c0,0,1413.3,557.3,3000-628V433.5C3000,433.5,1628,1612.6,0,1185z"/>
<g>
	<path fill="#FFFFFF" d="M2228.9,2019.5c-2.7-2.2-11.9-10-27-22.2c-15.2-12.1-36.4-28.6-63.6-47.9c-27.2-19.3-60.4-41.3-99.1-64.5
		c-38.8-23.2-83.1-47.7-132.4-72.2c-49.3-24.5-103.4-48.9-161.5-72.5c-58.1-23.6-120-46.4-184.7-67.9
		c-64.7-21.5-132.1-41.7-201-60.3c-68.9-18.7-139.3-35.8-210-51.3c-141.4-31.1-283.9-55.8-417.9-74.9c-134-19.1-259.4-32.6-367-42
		c-107.6-9.4-197.2-14.7-259.9-17.6c-62.6-2.9-98.3-3.4-97.9-3.4c3.8-0.3,7.8-0.5,11.8-0.8l12.1-0.7l24.2-1.2
		c16.2-0.8,32.4-1.4,48.6-2c32.5-1.2,65-2.1,97.6-2.8c89.9,6.3,179.6,14.4,269.2,24.2c89.5,9.8,178.9,21.4,267.9,34.8
		c89,13.4,177.7,28.7,265.9,46.1c88.2,17.4,175.9,37,262.9,59.1c87,22.1,173.2,46.8,258.3,74.7c85,27.9,168.9,58.9,250.7,94.1
		c81.8,35.2,161.7,74.5,237.9,119.2C2090.2,1912.2,2162.9,1962.4,2228.9,2019.5z"/>
	<path fill="#FFFFFF" d="M2025.6,1853.2c-2.5-1.4-11-6.3-24.9-14.1c-13.9-7.7-33.2-18.2-57.4-30.7c-24.2-12.4-53.2-26.8-86.6-42.1
		c-33.4-15.4-71-31.7-112.3-48.4c-41.3-16.6-86.2-33.6-134-50.2c-47.8-16.6-98.4-32.9-151-48.6c-105.2-31.3-218.4-59.8-332.1-84.1
		c-113.7-24.4-228-44.7-335.4-61c-107.4-16.3-207.8-28.7-294-37.8c-86.1-9.2-158-15.2-208.2-19c-50.3-3.8-79-5.5-79-5.5
		c52.2-1,104.4-1.3,156.7-1.1c143.9,13.6,287.3,31.6,429.9,54.4c142.6,22.8,284.4,50.5,424.6,84.4c140.1,34,278.7,74.3,413.8,123.6
		c67.5,24.7,134.2,51.6,199.4,81.4C1900.2,1784.3,1964,1817,2025.6,1853.2z"/>
	<path fill="#FFFFFF" d="M1837.5,1736.4c-4.3-1.8-29.1-13-69.7-29.6c-40.6-16.7-97.2-38.6-165.1-61.9
		c-67.9-23.3-147.1-47.8-232.3-70.8c-85.2-23.1-176.4-44.8-267.9-63.8c-91.4-19.1-183.1-35.5-269.2-49.1
		c-86.1-13.6-166.5-24.5-235.5-32.8c-69-8.3-126.5-14.2-166.8-18.1c-40.3-3.9-63.2-5.8-63.2-5.8c41.8,0.2,83.7,0.8,125.6,1.7
		c115.2,13,230,28.8,344.3,47.8c114.3,19,228,41.2,340.9,67.3c112.8,26.2,224.7,56.2,335,91.5
		C1623.7,1648.1,1732.3,1688.6,1837.5,1736.4z"/>
	<path fill="#FFFFFF" d="M1713.4,1667.3c-3.5-1.3-23.9-9.2-57.2-21.1c-33.2-12-79.4-27.9-134.4-45.1c-55.1-17.3-119-35.8-187.7-53.6
		c-68.6-17.9-141.9-35.1-215.2-50.5c-73.4-15.5-146.8-29.3-215.7-41c-68.9-11.7-133.3-21.4-188.5-29
		c-55.2-7.7-101.2-13.3-133.4-17.1c-32.2-3.8-50.6-5.8-50.6-5.8c33.6,0.9,67.1,2.1,100.7,3.6c92.1,12.2,184,26.4,275.5,42.6
		c91.5,16.3,182.6,34.7,273.2,55.6c90.5,20.9,180.5,44.4,269.6,71.1C1538.6,1603.5,1626.8,1633.3,1713.4,1667.3z"/>
	<path fill="#FFFFFF" d="M1610.7,1614.4c-5.8-1.8-66.3-23-155.3-48.9c-44.5-13-96-27.1-151.2-41c-55.2-13.9-114-27.5-172.8-40.1
		c-58.8-12.5-117.7-23.9-172.9-33.8c-55.2-9.9-106.7-18.3-150.9-25.1c-44.2-6.8-81-11.9-106.8-15.4l-40.5-5.4
		c26.9,1.3,53.7,2.7,80.6,4.3c147.3,22.1,294,49.1,439.4,82.6C1325.6,1525.2,1469.6,1565.1,1610.7,1614.4z"/>
	<path fill="#FFFFFF" d="M1546,1581c-4.7-1.4-53.6-17.2-125.1-37.4c-35.8-10.1-77.2-21.1-121.5-32.2
		c-44.3-11.1-91.4-22.1-138.5-32.4c-47.1-10.3-94.2-19.9-138.4-28.3c-44.2-8.4-85.4-15.7-120.7-21.7
		c-70.7-11.9-117.7-18.7-117.7-18.7c21.5,1.4,43,3,64.5,4.6c117.8,19.7,235.1,42.7,351.5,70C1316.5,1512.2,1432.1,1543.8,1546,1581z
		"/>
</g>
<g>
	<path fill="#FFFFFF" d="M75,1552c12.6,1,25,2.1,37.5,3.4c-8.7-0.4-17.7-0.7-26.5-1c23.1,1.9,45.9,4.3,70.2,6.7
		c57.1,5.6,111,13.2,164.3,23.6c26.6,5.2,53.1,11.2,79.7,18.2c26.6,7,53.3,15,80.3,24.5c40.9,14.3,80.8,31.3,119.2,51.4
		c38.4,20.1,75.3,43.3,109.6,70c34.3,26.7,66.1,57.1,94,90.9c27.9,33.8,51.7,71.1,70.5,110.8c7.2,15.5,12.6,27.3,13.1,25.5
		c0.6-1.2-3.8-14.8-11.2-30.2c-14.1-30.2-31.2-59-50.8-85.9c-19.6-26.9-41.7-51.9-65.6-74.7c-23.9-22.8-49.5-43.5-76.2-62.3
		c-26.7-18.7-54.5-35.5-82.9-50.5c-56.8-30.1-115.9-53.5-175.1-72.3c-59.2-18.8-118.7-33.2-177.4-44.4c-21.1-4-39.1-7.9-68.2-11.8
		c-40.8-5.3-81.5-7.8-114.1-7.9c-16.3-0.1-30.6,0.4-41.9,1.3c-5.7,0.4-10.6,1-14.7,1.6c-2,0.3-3.9,0.6-5.5,0.9
		c-0.8,0.2-1.5,0.3-2.2,0.5c-0.8,0.2-1.4,0.3-2.1,0.5c-4.1,1.4-3.9,2.7-0.1,3.8c2.3,0.6,5.3,1.1,9.1,1.7c3.8,0.6,8.4,1.1,13.8,1.7
		c21.5,2.3,54.9,4.9,95.4,8.6C103.2,1555,89.1,1553.4,75,1552z"/>
	<path fill="#FFFFFF" d="M73.8,1576c12.4,1,24.6,2.1,36.9,3.4c-8.6-0.4-17.4-0.7-26.1-1c22.8,1.9,45.2,4.3,69.2,6.6
		c56.3,5.5,109.4,13,161.8,23.2c52.4,10.3,104.1,23.4,156.9,41.9c40,14,78.9,30.6,116.2,50.1c37.3,19.5,73,42,106,67.7
		c33.1,25.7,63.5,54.8,90.1,87.1c26.6,32.3,49.3,67.8,67.3,105.6c6.9,14.8,12.1,26,12.6,24.3c0.6-1.2-3.6-14.1-10.6-28.8
		c-13.4-28.7-29.7-56.2-48.4-81.9c-18.7-25.7-39.8-49.6-62.7-71.5c-22.9-21.9-47.5-41.9-73.3-59.9c-25.8-18.1-52.7-34.3-80.3-48.9
		c-55.2-29.2-112.9-52.1-170.9-70.6c-58.1-18.5-116.5-32.6-174.4-43.7c-20.7-3.9-38.5-7.8-67.2-11.7c-40.2-5.2-80.3-7.7-112.4-7.7
		c-16,0-30.1,0.5-41.2,1.4c-5.5,0.4-10.3,1-14.3,1.6c-4,0.6-7,1.2-9.2,1.9c-4.1,1.4-3.9,2.7-0.1,3.8c4,1.1,11.5,2.2,22,3.4
		c21,2.3,53.9,4.9,93.8,8.6C101.5,1578.9,87.7,1577.4,73.8,1576z"/>
	<path fill="#FFFFFF" d="M72.5,1599.9c12.2,1,24.2,2.1,36.4,3.3c-8.5-0.4-17.1-0.7-25.7-1c22.4,1.8,44.5,4.2,68.1,6.5
		c55.5,5.4,107.7,12.8,159.2,22.8c51.4,10.1,102.2,23,153.8,41c39.1,13.7,77,29.8,113.2,48.7c36.2,18.9,70.6,40.6,102.4,65.4
		c31.8,24.8,60.9,52.6,86.3,83.4c25.4,30.8,46.9,64.5,64,100.4c6.6,14,11.5,24.7,12,23.1c0.6-1.1-3.3-13.5-10-27.5
		c-12.8-27.3-28.2-53.5-46.1-77.9c-17.8-24.5-38-47.3-59.9-68.3c-21.9-21-45.6-40.2-70.5-57.6c-24.9-17.4-50.9-33.2-77.7-47.4
		c-53.6-28.4-109.9-50.8-166.7-68.9c-56.9-18.1-114.4-32-171.3-43c-20.4-3.9-37.9-7.8-66.2-11.5c-39.6-5.2-79.2-7.5-110.7-7.6
		c-15.8,0-29.6,0.5-40.4,1.4c-10.8,0.9-18.8,2.1-22.6,3.5c-4.1,1.4-3.9,2.7-0.1,3.8c3.5,1.1,10.9,2.2,21.1,3.4
		c20.5,2.3,52.9,4.8,92.2,8.5C99.9,1602.9,86.2,1601.3,72.5,1599.9z"/>
	<path fill="#FFFFFF" d="M71.3,1623.9c12,0.9,23.8,2.1,35.8,3.3c-8.4-0.4-16.9-0.7-25.3-0.9c22.1,1.8,43.8,4.2,67.1,6.4
		c54.6,5.3,106.1,12.6,156.7,22.4c50.5,9.9,100.3,22.5,150.7,40.1c38.1,13.3,75.1,29.1,110.2,47.4c35.1,18.3,68.3,39.3,98.8,63.1
		c30.5,23.8,58.3,50.4,82.4,79.6c24.1,29.3,44.5,61.2,60.8,95.3c6.2,13.3,11,23.4,11.5,21.9c0.6-1.1-3.1-12.8-9.4-26.1
		c-12.1-25.9-26.8-50.7-43.7-74c-16.9-23.3-36.1-45-57.1-65c-41.9-40.1-90.8-73.5-142.6-101.1c-51.9-27.6-106.9-49.5-162.5-67.3
		c-55.7-17.8-112.2-31.5-168.2-42.3c-20.1-3.8-37.3-7.7-65.1-11.4c-39-5.1-78-7.4-109.1-7.4c-15.5,0-29.1,0.5-39.7,1.4
		c-5.3,0.4-9.9,1-13.6,1.6c-1.8,0.3-3.5,0.6-4.9,0.9c-0.7,0.2-1.3,0.3-1.9,0.5c-0.5,0.2-1,0.3-1.4,0.5c-4.1,1.4-3.9,2.7-0.1,3.8
		c1.4,0.6,4.1,1.1,7.5,1.7c3.4,0.6,7.7,1.1,12.7,1.7c20,2.3,51.9,4.8,90.6,8.4C98.2,1626.8,84.7,1625.3,71.3,1623.9z"/>
</g>
<g>
	<path fill="#FFFFFF" d="M2417.4,1016.8c-111.5,55.4-225.6,105.6-342,149.8c-116.4,44.2-235.2,82.4-355.7,114.1
		c-120.5,31.6-242.7,56.7-366,74.6c-123.2,17.9-247.5,28.7-372,32c-124.4,3.3-249.1-0.9-373-13c-123.9-12.1-247-32.1-368.4-61.1
		c-45-4.8-90.1-10.8-135.3-18.5c-22.6-3.8-45.3-8.1-68-12.9c-10-2.1-20.1-4.4-30.3-6.7v4.8c22.9,8.2,55.1,19,95.8,30.9
		c42.7,12.5,94.8,26.2,154.9,39.3c60.1,13.1,128.3,25.7,203.2,36.1c74.8,10.4,156.3,18.6,242.8,23.3c86.4,4.7,177.8,5.9,272.3,2.6
		c94.4-3.3,192-11,290.5-23.5c98.6-12.5,198.2-29.9,296.9-51.8c98.7-21.9,196.6-48.3,291.7-78.5c95.1-30.1,187.6-63.9,275.9-100
		c88.3-36.1,172.4-74.5,251.1-113.6c78.7-39.1,152.1-78.8,219.1-117.4c134.1-77.3,242.8-149.9,320.2-204
		c31.7-22.2,58.1-41.3,78.9-56.5v-1.3C2815.3,797.1,2620.9,915.7,2417.4,1016.8z"/>
	<path fill="#FFFFFF" d="M361.6,1329.4c68.3,12.2,166.5,27,285.3,35.8c59.4,4.4,123.9,7.4,192.2,8.1c68.3,0.7,140.4-1,214.9-5.5
		c74.5-4.5,151.3-11.9,229.1-22.3c77.8-10.4,156.5-24,234.7-40.4c78.2-16.4,156-35.7,231.8-57.4c75.9-21.7,149.9-45.7,221-71.3
		c71-25.5,139.1-52.6,203-80.1c64-27.5,123.9-55.4,178.9-82.5c110-54.2,200.4-105.3,264.9-143.4c32.3-19.1,58.1-35,76.8-46.6
		c18.6-11.6,30.1-18.9,33.4-21.1c-168,103.5-343.2,195.6-524.6,273.2c-181.4,77.6-369,140.7-560.8,186.8
		c-191.7,46.1-387.4,75.1-584.1,85.2c-196.6,10.1-394.1,1.6-588.6-27.5c-71.4-1.2-143-5.3-214.9-12.5c0,0,9.7,2.2,27.9,6.1
		C300.7,1317.8,327.4,1323.3,361.6,1329.4z"/>
	<path fill="#FFFFFF" d="M556.6,1318.6c54.4,5.9,132.4,12.7,226.4,15.3c47,1.4,98,1.7,151.9,0.5c53.9-1.2,110.8-3.9,169.6-8.5
		c58.8-4.6,119.4-11,180.9-19.4c61.5-8.4,123.7-18.8,185.7-31c62-12.2,123.7-26.3,184.2-41.9c60.5-15.6,119.6-32.7,176.6-50.7
		c113.9-36.1,218.8-76.1,308.3-114c89.5-37.9,163.6-73.5,216.7-100.1c53.1-26.7,85.4-44.3,90.9-47.3
		c-138.9,72.1-282,136-428.6,190.1c-146.6,54.1-296.7,98.5-449.2,131.9c-152.4,33.4-307.1,55.9-462.6,66.5
		c-155.4,10.6-311.5,9.4-466.4-4.3c-56.4,2.5-113,3.3-169.8,2.4l22.2,3C508,1312.9,529.4,1315.6,556.6,1318.6z"/>
	<path fill="#FFFFFF" d="M938.4,1301.2c74.4-1.7,161.2-6.6,254-16.7c92.8-9.9,191.5-25,289.6-45c98.1-19.9,195.5-44.6,286.2-71.8
		c90.7-27.1,174.7-56.5,246.6-84.1c71.9-27.6,131.8-53.3,174.8-72.5c43-19.2,69.3-31.9,73.8-34.1
		c-112.8,51.7-228.1,97.7-345.5,137.4c-117.4,39.7-236.8,73-357.6,99.4c-120.8,26.4-243,45.8-365.9,57.8
		c-122.8,12-246.3,16.6-369.4,13.5c-44.5,4.8-89.2,8.7-134.1,11.5c0,0,24.6,1.7,67.9,3.3C802.2,1301.6,864.1,1303,938.4,1301.2z"/>
	<path fill="#FFFFFF" d="M916.7,1272.1c34.3-0.6,83.3-1.9,142.1-5.7c58.8-3.7,127.4-10,200.8-19.6c73.3-9.6,151.4-22.6,229.1-38.7
		c77.7-16.1,155-35.2,227.2-55.8c72.2-20.5,139.3-42.3,196.9-62.6c57.6-20.3,105.8-39,140.5-52.9c34.7-14,55.9-23.1,59.6-24.7
		c-182.3,74.5-370.4,133.9-562.1,175.4c-191.7,41.6-386.9,65.5-582.3,70c-35,5.6-70.2,10.6-105.5,14.9
		C862.8,1272.5,882.4,1272.7,916.7,1272.1z"/>
	<path fill="#FFFFFF" d="M1179.2,1233.1c46.6-4.9,100.8-11.7,158.9-20.9c58-9.2,119.8-20.7,181.3-34.2
		c61.6-13.5,122.9-28.9,180.3-45c57.4-16.1,110.9-32.8,156.9-48.3c46-15.4,84.6-29.5,112.4-39.9c27.8-10.4,44.9-17.2,47.8-18.4
		c-146.3,55.3-296.2,100.7-448.3,134.8c-152.1,34.2-306.4,57.1-461.4,68c-27.6,5.8-55.3,11.2-83.1,16.2c0,0,15.5-0.7,42.7-2.6
		C1093.8,1240.9,1132.6,1237.9,1179.2,1233.1z"/>
</g>
</svg>
