<?xml version="1.0" encoding="utf-8"?>
<!-- Generator: Adobe Illustrator 17.1.0, SVG Export Plug-In . SVG Version: 6.00 Build 0)  -->
<!DOCTYPE svg PUBLIC "-//W3C//DTD SVG 1.1//EN" "http://www.w3.org/Graphics/SVG/1.1/DTD/svg11.dtd" [
	<!ENTITY ns_flows "http://ns.adobe.com/Flows/1.0/">
	<!ENTITY ns_extend "http://ns.adobe.com/Extensibility/1.0/">
	<!ENTITY ns_ai "http://ns.adobe.com/AdobeIllustrator/10.0/">
	<!ENTITY ns_graphs "http://ns.adobe.com/Graphs/1.0/">
]>
<svg version="1.1" id="Layer_1" xmlns:x="&ns_extend;" xmlns:i="&ns_ai;" xmlns:graph="&ns_graphs;"
	 xmlns="http://www.w3.org/2000/svg" xmlns:xlink="http://www.w3.org/1999/xlink" xmlns:a="http://ns.adobe.com/AdobeSVGViewerExtensions/3.0/"
	 x="0px" y="0px" width="224px" height="99px" viewBox="0 0 224 99" enable-background="new 0 0 224 99" xml:space="preserve">
<g id="Layer_1_1_">
</g>
<g id="Layer_2">
	<g>
		<g>
			<polygon fill="#E4E5E6" points="187,30.9 172.2,30.9 154.6,0.2 169.4,0.2 			"/>
			<polygon fill="#E4E5E6" points="206.2,0.2 189.5,0.2 180.6,15.8 188.9,30.4 			"/>
		</g>
		<g>
			<path fill="#996400" d="M180.4,33.2c-13.7,0-24.8,11.1-24.8,24.8s11.1,24.8,24.8,24.8s24.8-11.1,24.8-24.8S194.1,33.2,180.4,33.2
				z M180.4,77.4c-10.7,0-19.4-8.6-19.4-19.4s8.6-19.4,19.4-19.4c10.7,0,19.4,8.6,19.4,19.4S191.1,77.4,180.4,77.4z"/>
			<circle fill="#996400" cx="180.4" cy="58" r="16.8"/>
		</g>
		<g>
			<path fill="#FFFFFF" d="M169.3,51.8h2c0.5,0,0.8,0.1,1.1,0.3c0.1,0.1,0.2,0.4,0.2,0.6l0,0c0,0.5-0.3,0.7-0.6,0.9
				c0.5,0.1,0.8,0.4,0.8,1l0,0c0,0.6-0.6,1.1-1.5,1.1h-2V51.8z M171.6,53c0-0.2-0.2-0.3-0.5-0.3h-0.7v0.7h0.7
				C171.4,53.3,171.6,53.2,171.6,53L171.6,53z M171.2,54h-0.8v0.7h0.8c0.3,0,0.5-0.1,0.5-0.4l0,0C171.7,54.2,171.5,54,171.2,54z"/>
			<path fill="#FFFFFF" d="M173.3,51.8h3.1v0.9h-2v0.6h1.8v0.8h-1.8v0.6h2.1v0.9h-3.2V51.8L173.3,51.8z"/>
			<path fill="#FFFFFF" d="M177,51.8h1.1v3.9H177V51.8z"/>
			<path fill="#FFFFFF" d="M178.4,55l0.7-0.6c0.2,0.2,0.4,0.4,0.6,0.4c0.3,0,0.4-0.2,0.4-0.6v-2.4h1.1v2.4c0,0.5-0.1,0.8-0.4,1.1
				c-0.3,0.3-0.6,0.4-1.1,0.4C179.1,55.7,178.7,55.4,178.4,55z"/>
			<path fill="#FFFFFF" d="M181.9,51.8h1.1v3.9h-1.1V51.8z"/>
			<path fill="#FFFFFF" d="M183.6,51.8h1l1.6,2v-2h1.1v3.9h-0.9l-1.7-2.1v2.1h-1.1L183.6,51.8L183.6,51.8z"/>
			<path fill="#FFFFFF" d="M187.9,53.7L187.9,53.7c0-1.2,0.9-2,2.1-2c0.7,0,1.2,0.2,1.6,0.6l-0.6,0.8c-0.3-0.2-0.6-0.4-0.9-0.4
				c-0.6,0-1,0.5-1,1.1l0,0c0,0.6,0.4,1.1,1.1,1.1c0.3,0,0.5,0,0.6-0.1v-0.5h-0.7v-0.8h1.8v1.7c-0.4,0.3-1,0.6-1.7,0.6
				C188.8,55.7,187.9,54.8,187.9,53.7z"/>
		</g>
		<g>
			<path fill="#FFFFFF" d="M168.7,62.7l2.7-2c0.6-0.5,0.9-0.8,0.9-1.3s-0.3-0.7-0.8-0.7s-0.8,0.3-1.4,0.9l-1.3-1.1
				c0.8-1,1.5-1.5,2.9-1.5c1.6,0,2.6,0.9,2.6,2.3l0,0c0,1.2-0.6,1.7-1.7,2.5l-1.2,0.8h2.9v1.6h-5.6L168.7,62.7L168.7,62.7z"/>
			<path fill="#FFFFFF" d="M175,60.7L175,60.7c0-2,1.3-3.7,3.3-3.7s3.3,1.7,3.3,3.7l0,0c0,2-1.3,3.7-3.3,3.7S175,62.7,175,60.7z
				 M179.6,60.7L179.6,60.7c0-1.2-0.5-2-1.3-2s-1.3,0.8-1.3,1.9l0,0c0,1.2,0.5,1.9,1.3,1.9S179.6,61.8,179.6,60.7z"/>
			<path fill="#FFFFFF" d="M183.5,58.9l-1.2,0.3l-0.4-1.5l2.1-0.6h1.4v7.1h-1.9L183.5,58.9L183.5,58.9z"/>
			<path fill="#FFFFFF" d="M186.4,63.2l1.1-1.3c0.6,0.5,1.1,0.8,1.7,0.8c0.6,0,1-0.3,1-0.8l0,0c0-0.5-0.4-0.8-1.1-0.8
				c-0.4,0-0.8,0.1-1.2,0.4l-1.2-0.6l0.2-3.6h4.7v1.6h-3.2V60c0.3-0.1,0.6-0.3,1.2-0.3c1.3,0,2.4,0.7,2.4,2.3l0,0
				c0,1.6-1.2,2.5-2.9,2.5C188,64.4,187.1,63.9,186.4,63.2z"/>
		</g>
	</g>
	<g>
		<g>
			<polygon fill="#E4E5E6" points="126,30.9 111.1,30.9 93.6,0.2 108.4,0.2 			"/>
			<polygon fill="#E4E5E6" points="145.2,0.2 128.5,0.2 119.6,15.8 127.9,30.4 			"/>
		</g>
		<g>
			<path fill="#999999" d="M119.4,33.2c-16,0-28.9,12.9-28.9,28.9S103.4,91,119.4,91s28.9-12.9,28.9-28.9
				C148.3,46.1,135.3,33.2,119.4,33.2z M119.4,84.7c-12.5,0-22.6-10.1-22.6-22.6s10.1-22.6,22.6-22.6S142,49.6,142,62.1
				C141.9,74.6,131.9,84.7,119.4,84.7z"/>
			<circle fill="#999999" cx="119.4" cy="62.1" r="19.6"/>
		</g>
		<g>
			<path fill="#FFFFFF" d="M106.4,54.8h2.3c0.6,0,1,0.1,1.2,0.4c0.2,0.2,0.3,0.4,0.3,0.7l0,0c0,0.5-0.3,0.8-0.7,1
				c0.6,0.2,0.9,0.5,0.9,1.1l0,0c0,0.8-0.6,1.2-1.7,1.2h-2.3V54.8z M109,56.2c0-0.2-0.2-0.4-0.6-0.4h-0.8v0.8h0.8
				C108.8,56.6,109,56.5,109,56.2L109,56.2z M108.6,57.5h-1v0.8h1c0.4,0,0.6-0.1,0.6-0.4l0,0C109.2,57.6,109,57.5,108.6,57.5z"/>
			<path fill="#FFFFFF" d="M111,54.8h3.6v1.1h-2.3v0.7h2.2v1h-2.2v0.7h2.4v1.1h-3.6L111,54.8L111,54.8z"/>
			<path fill="#FFFFFF" d="M115.4,54.8h1.2v4.5h-1.2V54.8z"/>
			<path fill="#FFFFFF" d="M117.1,58.7l0.8-0.8c0.2,0.3,0.4,0.4,0.7,0.4s0.5-0.2,0.5-0.6v-2.9h1.2v2.9c0,0.6-0.1,1-0.5,1.3
				c-0.3,0.3-0.7,0.5-1.2,0.5C117.9,59.4,117.4,59.1,117.1,58.7z"/>
			<path fill="#FFFFFF" d="M121.1,54.8h1.2v4.5h-1.2V54.8z"/>
			<path fill="#FFFFFF" d="M123.2,54.8h1.2l1.8,2.4v-2.4h1.2v4.5h-1.1l-1.9-2.5v2.5h-1.2L123.2,54.8L123.2,54.8z"/>
			<path fill="#FFFFFF" d="M128.1,57.1L128.1,57.1c0-1.3,1-2.3,2.4-2.3c0.8,0,1.3,0.2,1.8,0.6l-0.7,0.9c-0.3-0.3-0.6-0.4-1.1-0.4
				c-0.6,0-1.2,0.6-1.2,1.2l0,0c0,0.7,0.5,1.2,1.2,1.2c0.3,0,0.6,0,0.7-0.2v-0.6h-0.9v-0.9h2.1v2c-0.5,0.4-1.2,0.7-2,0.7
				C129.1,59.4,128.1,58.5,128.1,57.1z"/>
		</g>
		<g>
			<path fill="#FFFFFF" d="M105.7,67.6l3.1-2.3c0.8-0.6,1.1-1,1.1-1.5c0-0.6-0.4-0.8-0.9-0.8c-0.6,0-1,0.3-1.7,1.1l-1.5-1.3
				c0.9-1.2,1.7-1.7,3.4-1.7c1.8,0,3,1.1,3,2.6l0,0c0,1.3-0.7,2-1.9,2.9l-1.4,1h3.4v1.9h-6.5L105.7,67.6L105.7,67.6L105.7,67.6z"/>
			<path fill="#FFFFFF" d="M113.1,65.2L113.1,65.2c0-2.3,1.5-4.3,3.8-4.3s3.8,1.9,3.8,4.3l0,0c0,2.3-1.5,4.3-3.8,4.3
				C114.6,69.5,113.1,67.6,113.1,65.2z M118.5,65.2L118.5,65.2c0-1.3-0.6-2.3-1.5-2.3s-1.5,0.9-1.5,2.3l0,0c0,1.3,0.6,2.3,1.5,2.3
				S118.5,66.6,118.5,65.2z"/>
			<path fill="#FFFFFF" d="M123,63.2l-1.4,0.3l-0.4-1.7l2.4-0.7h1.7v8.3H123V63.2L123,63.2z"/>
			<path fill="#FFFFFF" d="M126.3,68.2l1.3-1.5c0.6,0.6,1.3,0.9,2,0.9s1.2-0.4,1.2-1l0,0c0-0.6-0.5-1-1.2-1c-0.5,0-0.9,0.2-1.3,0.4
				l-1.4-0.8l0.2-4.2h5.5v1.9h-3.7l-0.1,1.2c0.4-0.2,0.8-0.3,1.3-0.3c1.5,0,2.9,0.8,2.9,2.6l0,0c0,1.8-1.4,2.9-3.4,2.9
				C128.2,69.5,127.2,69,126.3,68.2z"/>
		</g>
	</g>
	<g>
		<g>
			<polygon fill="#E4E5E6" points="57.2,30.9 42.4,30.9 24.8,0.2 39.6,0.2 			"/>
			<polygon fill="#E4E5E6" points="76.4,0.2 59.8,0.2 50.8,15.8 59.1,30.4 			"/>
		</g>
		<g>
			<path fill="#FFC727" d="M50.6,33.2c-18.1,0-32.8,14.7-32.8,32.8c0,18.1,14.7,32.8,32.8,32.8S83.4,84.1,83.4,66
				C83.5,47.9,68.7,33.2,50.6,33.2z M50.6,91.6C36.4,91.6,25,80.1,25,66s11.5-25.6,25.6-25.6c14.2,0,25.6,11.5,25.6,25.6
				S64.8,91.6,50.6,91.6z"/>
			<circle fill="#FFC727" cx="50.6" cy="66" r="22.3"/>
		</g>
		<g>
			<path fill="#FFFFFF" d="M35.9,57.7h2.6c0.6,0,1.1,0.1,1.4,0.5c0.2,0.2,0.3,0.5,0.3,0.8l0,0c0,0.6-0.3,0.9-0.8,1.2
				c0.6,0.2,1,0.6,1,1.2l0,0c0,0.9-0.7,1.4-1.9,1.4h-2.6V57.7z M38.9,59.3c0-0.3-0.2-0.5-0.6-0.5h-1v0.9h0.9
				C38.6,59.8,38.9,59.6,38.9,59.3L38.9,59.3z M38.4,60.8h-1.1v0.9h1.1c0.5,0,0.7-0.2,0.7-0.5l0,0C39.1,61,38.9,60.8,38.4,60.8z"/>
			<path fill="#FFFFFF" d="M41.1,57.7h4.1v1.2h-2.7v0.8h2.4v1.1h-2.4v0.8h2.8v1.2h-4.1L41.1,57.7L41.1,57.7z"/>
			<path fill="#FFFFFF" d="M46.1,57.7h1.4v5.1h-1.4V57.7z"/>
			<path fill="#FFFFFF" d="M48,62.1l0.9-0.9c0.2,0.3,0.5,0.5,0.8,0.5c0.4,0,0.6-0.2,0.6-0.7v-3.2h1.4V61c0,0.6-0.1,1.1-0.5,1.4
				c-0.3,0.3-0.8,0.5-1.4,0.5C48.9,62.9,48.4,62.6,48,62.1z"/>
			<path fill="#FFFFFF" d="M52.6,57.7H54v5.1h-1.4V57.7z"/>
			<path fill="#FFFFFF" d="M54.9,57.7h1.3l2.1,2.7v-2.7h1.4v5.1h-1.2L56.3,60v2.8h-1.4L54.9,57.7L54.9,57.7z"/>
			<path fill="#FFFFFF" d="M60.5,60.3L60.5,60.3c0-1.5,1.2-2.7,2.8-2.7c0.9,0,1.5,0.3,2.1,0.7l-0.8,1c-0.4-0.3-0.7-0.5-1.2-0.5
				c-0.7,0-1.3,0.6-1.3,1.4l0,0c0,0.8,0.6,1.4,1.4,1.4c0.4,0,0.6-0.1,0.8-0.2v-0.6h-1v-1.1h2.3V62c-0.6,0.5-1.3,0.8-2.2,0.8
				C61.7,63,60.5,61.9,60.5,60.3z"/>
		</g>
		<g>
			<path fill="#FFFFFF" d="M35.1,72.3l3.5-2.7c0.9-0.7,1.2-1.1,1.2-1.7s-0.4-1-1.1-1s-1.1,0.4-1.8,1.2l-1.7-1.5c1-1.3,2-2,3.8-2
				c2.1,0,3.5,1.2,3.5,3l0,0c0,1.5-0.8,2.3-2.2,3.3L38.7,72h3.9v2.1h-7.4L35.1,72.3L35.1,72.3z"/>
			<path fill="#FFFFFF" d="M43.5,69.6L43.5,69.6c0-2.7,1.7-4.9,4.4-4.9s4.3,2.2,4.3,4.8l0,0c0,2.7-1.7,4.9-4.4,4.9
				C45.2,74.4,43.5,72.2,43.5,69.6z M49.6,69.6L49.6,69.6c0-1.5-0.7-2.6-1.7-2.6s-1.7,1.1-1.7,2.6l0,0c0,1.5,0.7,2.6,1.7,2.6
				C49,72.1,49.6,71.1,49.6,69.6z"/>
			<path fill="#FFFFFF" d="M54.7,67.2l-1.6,0.4l-0.5-2l2.8-0.8h1.9v9.4h-2.6L54.7,67.2L54.7,67.2z"/>
			<path fill="#FFFFFF" d="M58.5,73l1.5-1.7c0.7,0.6,1.5,1,2.3,1c0.9,0,1.4-0.4,1.4-1.1l0,0c0-0.7-0.6-1.1-1.4-1.1
				c-0.6,0-1.1,0.2-1.5,0.5l-1.5-0.9l0.3-4.7h6.3v2.2h-4.2l-0.1,1.4c0.4-0.2,0.9-0.3,1.5-0.3c1.7,0,3.2,0.9,3.2,3l0,0
				c0,2.1-1.6,3.4-3.9,3.4C60.6,74.4,59.5,73.8,58.5,73z"/>
		</g>
	</g>
</g>
</svg>
